<svg width="278" height="26" viewBox="0 0 278 26" fill="none" xmlns="http://www.w3.org/2000/svg">
<path d="M22.9062 25.5605C23.1055 25.2676 23.1348 24.9629 22.9941 24.6465L12.834 1.44336C12.6699 1.05664 12.377 0.863281 11.9551 0.863281C11.5332 0.863281 11.2344 1.05664 11.0586 1.44336L0.916016 24.6465C0.810547 24.8926 0.804688 25.1387 0.898438 25.3848C0.992188 25.6309 1.16211 25.8066 1.4082 25.9121C1.53711 25.9707 1.66602 26 1.79492 26C2.2168 26 2.51562 25.8066 2.69141 25.4199L11.9551 4.23828L20.6211 24.0664H9.5293C9.25977 24.0664 9.03125 24.1602 8.84375 24.3477C8.65625 24.5352 8.5625 24.7637 8.5625 25.0332C8.5625 25.3027 8.65625 25.5312 8.84375 25.7188C9.03125 25.9062 9.25977 26 9.5293 26H22.0977C22.4492 26 22.7188 25.8535 22.9062 25.5605ZM48.8867 25.5605C49.0859 25.2676 49.1152 24.9629 48.9746 24.6465L38.8145 1.44336C38.6504 1.05664 38.3574 0.863281 37.9355 0.863281C37.5137 0.863281 37.2148 1.05664 37.0391 1.44336L26.8965 24.6465C26.791 24.8926 26.7852 25.1387 26.8789 25.3848C26.9727 25.6309 27.1426 25.8066 27.3887 25.9121C27.5176 25.9707 27.6465 26 27.7754 26C28.1973 26 28.4961 25.8066 28.6719 25.4199L37.9355 4.23828L46.6016 24.0664H35.5098C35.2402 24.0664 35.0117 24.1602 34.8242 24.3477C34.6367 24.5352 34.543 24.7637 34.543 25.0332C34.543 25.3027 34.6367 25.5312 34.8242 25.7188C35.0117 25.9062 35.2402 26 35.5098 26H48.0781C48.4297 26 48.6992 25.8535 48.8867 25.5605ZM53.6855 26C53.9551 26 54.1836 25.9062 54.3711 25.7188C54.5586 25.5312 54.6523 25.3027 54.6523 25.0332V16.7539H60.9102L69.1543 25.6836C69.3418 25.8945 69.5762 26 69.8574 26C70.1152 26 70.3379 25.9121 70.5254 25.7363C70.7129 25.5605 70.8125 25.3379 70.8242 25.0684C70.8359 24.7988 70.7539 24.5703 70.5781 24.3828L63.4941 16.7012C65.4863 16.4785 67.1621 15.6172 68.5215 14.1172C69.8809 12.6055 70.5605 10.8359 70.5605 8.80859C70.5605 6.61719 69.7812 4.74219 68.2227 3.18359C66.6758 1.63672 64.8066 0.863281 62.6152 0.863281H53.6855C53.416 0.863281 53.1875 0.957031 53 1.14453C52.8125 1.33203 52.7188 1.56055 52.7188 1.83008C52.7188 2.09961 52.8125 2.32812 53 2.51562C53.1875 2.70313 53.416 2.79688 53.6855 2.79688H62.6152C64.2676 2.79688 65.6855 3.38281 66.8691 4.55469C68.041 5.72656 68.627 7.14453 68.627 8.80859C68.627 10.4609 68.041 11.8789 66.8691 13.0625C65.6855 14.2344 64.2676 14.8203 62.6152 14.8203H53.6855C53.416 14.8203 53.1875 14.9141 53 15.1016C52.8125 15.2891 52.7188 15.5176 52.7188 15.7871V25.0332C52.7188 25.3027 52.8125 25.5312 53 25.7188C53.1875 25.9062 53.416 26 53.6855 26ZM86.9434 24.0664C84.0137 24.0664 81.5059 23.0293 79.4199 20.9551C77.3457 18.8691 76.3086 16.3613 76.3086 13.4316C76.3086 10.502 77.3457 7.99414 79.4199 5.9082C81.5059 3.83398 84.0137 2.79688 86.9434 2.79688C89.873 2.79688 92.3809 3.83398 94.4668 5.9082C96.541 7.99414 97.5781 10.502 97.5781 13.4316C97.5781 16.3613 96.541 18.8691 94.4668 20.9551C92.3809 23.0293 89.873 24.0664 86.9434 24.0664ZM86.9434 0.863281C83.4746 0.863281 80.5098 2.08789 78.0488 4.53711C75.5996 6.99805 74.375 9.96289 74.375 13.4316C74.375 16.9004 75.5996 19.8652 78.0488 22.3262C80.5098 24.7754 83.4746 26 86.9434 26C90.4121 26 93.377 24.7754 95.8379 22.3262C98.2871 19.8652 99.5117 16.9004 99.5117 13.4316C99.5117 9.96289 98.2871 6.99805 95.8379 4.53711C93.377 2.08789 90.4121 0.863281 86.9434 0.863281ZM103.994 26C104.264 26 104.492 25.9062 104.68 25.7188C104.867 25.5312 104.961 25.3027 104.961 25.0332V4.66016L121.115 25.6309C121.314 25.877 121.572 26 121.889 26C121.994 26 122.094 25.9824 122.188 25.9473C122.633 25.7949 122.855 25.4902 122.855 25.0332V1.83008C122.855 1.56055 122.762 1.33203 122.574 1.14453C122.375 0.957031 122.146 0.863281 121.889 0.863281C121.619 0.863281 121.391 0.957031 121.203 1.14453C121.016 1.33203 120.922 1.56055 120.922 1.83008V22.2031L104.768 1.23242C104.486 0.869141 104.123 0.763672 103.678 0.916016C103.244 1.05664 103.027 1.36133 103.027 1.83008V25.0332C103.027 25.3027 103.121 25.5312 103.309 25.7188C103.496 25.9062 103.725 26 103.994 26ZM144.248 2.79688V25.0332C144.248 25.3027 144.342 25.5312 144.529 25.7188C144.717 25.9062 144.945 26 145.215 26C145.484 26 145.713 25.9062 145.9 25.7188C146.088 25.5312 146.182 25.3027 146.182 25.0332V2.79688H154.162C154.42 2.79688 154.648 2.70313 154.848 2.51562C155.035 2.32812 155.129 2.09961 155.129 1.83008C155.129 1.56055 155.035 1.33203 154.848 1.14453C154.648 0.957031 154.42 0.863281 154.162 0.863281H136.268C135.998 0.863281 135.77 0.957031 135.582 1.14453C135.395 1.33203 135.301 1.56055 135.301 1.83008C135.301 2.09961 135.395 2.32812 135.582 2.51562C135.77 2.70313 135.998 2.79688 136.268 2.79688H144.248ZM168.752 24.0664C165.822 24.0664 163.314 23.0293 161.229 20.9551C159.154 18.8691 158.117 16.3613 158.117 13.4316C158.117 10.502 159.154 7.99414 161.229 5.9082C163.314 3.83398 165.822 2.79688 168.752 2.79688C171.682 2.79688 174.189 3.83398 176.275 5.9082C178.35 7.99414 179.387 10.502 179.387 13.4316C179.387 16.3613 178.35 18.8691 176.275 20.9551C174.189 23.0293 171.682 24.0664 168.752 24.0664ZM168.752 0.863281C165.283 0.863281 162.318 2.08789 159.857 4.53711C157.408 6.99805 156.184 9.96289 156.184 13.4316C156.184 16.9004 157.408 19.8652 159.857 22.3262C162.318 24.7754 165.283 26 168.752 26C172.221 26 175.186 24.7754 177.646 22.3262C180.096 19.8652 181.32 16.9004 181.32 13.4316C181.32 9.96289 180.096 6.99805 177.646 4.53711C175.186 2.08789 172.221 0.863281 168.752 0.863281ZM202.238 26C202.508 26 202.736 25.9062 202.924 25.7188C203.111 25.5312 203.205 25.3027 203.205 25.0332C203.205 24.7637 203.111 24.5352 202.924 24.3477C202.736 24.1602 202.508 24.0664 202.238 24.0664H186.77V1.83008C186.77 1.56055 186.676 1.33203 186.488 1.14453C186.301 0.957031 186.072 0.863281 185.803 0.863281C185.533 0.863281 185.305 0.957031 185.117 1.14453C184.93 1.33203 184.836 1.56055 184.836 1.83008V25.0332C184.836 25.3027 184.93 25.5312 185.117 25.7188C185.305 25.9062 185.533 26 185.803 26H202.238ZM207.705 26C207.975 26 208.203 25.9062 208.391 25.7188C208.578 25.5312 208.672 25.3027 208.672 25.0332V1.83008C208.672 1.56055 208.578 1.33203 208.391 1.14453C208.203 0.957031 207.975 0.863281 207.705 0.863281C207.436 0.863281 207.207 0.957031 207.02 1.14453C206.832 1.33203 206.738 1.56055 206.738 1.83008V25.0332C206.738 25.3027 206.832 25.5312 207.02 25.7188C207.207 25.9062 207.436 26 207.705 26ZM222.488 25.4199C222.664 25.8066 222.963 26 223.385 26C223.807 26 224.1 25.8066 224.264 25.4199L234.424 2.2168C234.529 1.9707 234.535 1.72461 234.441 1.47852C234.336 1.23242 234.16 1.05078 233.914 0.933594C233.668 0.828125 233.422 0.828125 233.176 0.933594C232.93 1.02734 232.754 1.19727 232.648 1.44336L223.385 22.625L214.121 1.44336C214.004 1.19727 213.822 1.02734 213.576 0.933594C213.33 0.828125 213.084 0.828125 212.838 0.933594C212.592 1.05078 212.422 1.23242 212.328 1.47852C212.234 1.72461 212.24 1.9707 212.346 2.2168L222.488 25.4199ZM255.992 25.0332C255.992 24.7637 255.898 24.5352 255.711 24.3477C255.512 24.1602 255.283 24.0664 255.025 24.0664H239.064C238.795 24.0664 238.566 24.1602 238.379 24.3477C238.191 24.5352 238.098 24.7637 238.098 25.0332C238.098 25.3027 238.191 25.5312 238.379 25.7188C238.566 25.9062 238.795 26 239.064 26H255.025C255.283 26 255.512 25.9062 255.711 25.7188C255.898 25.5312 255.992 25.3027 255.992 25.0332ZM239.064 0.863281C238.795 0.863281 238.566 0.957031 238.379 1.14453C238.191 1.33203 238.098 1.56055 238.098 1.83008C238.098 2.09961 238.191 2.32812 238.379 2.51562C238.566 2.70313 238.795 2.79688 239.064 2.79688H255.025C255.283 2.79688 255.512 2.70313 255.711 2.51562C255.898 2.32812 255.992 2.09961 255.992 1.83008C255.992 1.56055 255.898 1.33203 255.711 1.14453C255.512 0.957031 255.283 0.863281 255.025 0.863281H239.064ZM239.064 12.4648C238.795 12.4648 238.566 12.5586 238.379 12.7461C238.191 12.9336 238.098 13.1621 238.098 13.4316C238.098 13.7012 238.191 13.9297 238.379 14.1172C238.566 14.3047 238.795 14.3984 239.064 14.3984H255.025C255.283 14.3984 255.512 14.3047 255.711 14.1172C255.898 13.9297 255.992 13.7012 255.992 13.4316C255.992 13.1621 255.898 12.9336 255.711 12.7461C255.512 12.5586 255.283 12.4648 255.025 12.4648H239.064ZM260.475 26C260.744 26 260.973 25.9062 261.16 25.7188C261.348 25.5312 261.441 25.3027 261.441 25.0332V16.7539H267.699L275.943 25.6836C276.131 25.8945 276.365 26 276.646 26C276.904 26 277.127 25.9121 277.314 25.7363C277.502 25.5605 277.602 25.3379 277.613 25.0684C277.625 24.7988 277.543 24.5703 277.367 24.3828L270.283 16.7012C272.275 16.4785 273.951 15.6172 275.311 14.1172C276.67 12.6055 277.35 10.8359 277.35 8.80859C277.35 6.61719 276.57 4.74219 275.012 3.18359C273.465 1.63672 271.596 0.863281 269.404 0.863281H260.475C260.205 0.863281 259.977 0.957031 259.789 1.14453C259.602 1.33203 259.508 1.56055 259.508 1.83008C259.508 2.09961 259.602 2.32812 259.789 2.51562C259.977 2.70313 260.205 2.79688 260.475 2.79688H269.404C271.057 2.79688 272.475 3.38281 273.658 4.55469C274.83 5.72656 275.416 7.14453 275.416 8.80859C275.416 10.4609 274.83 11.8789 273.658 13.0625C272.475 14.2344 271.057 14.8203 269.404 14.8203H260.475C260.205 14.8203 259.977 14.9141 259.789 15.1016C259.602 15.2891 259.508 15.5176 259.508 15.7871V25.0332C259.508 25.3027 259.602 25.5312 259.789 25.7188C259.977 25.9062 260.205 26 260.475 26Z" fill="black"/>
</svg>
