<svg width="175" height="175" viewBox="0 0 175 175" fill="none" xmlns="http://www.w3.org/2000/svg">
<path fill-rule="evenodd" clip-rule="evenodd" d="M74.2272 160.417H100.769C102.431 160.415 104.042 159.846 105.336 158.804C106.631 157.762 107.53 156.309 107.886 154.685L110.897 140.984C114.854 139.253 118.605 137.086 122.082 134.524L135.477 138.79C137.063 139.295 138.773 139.243 140.325 138.642C141.877 138.042 143.177 136.928 144.008 135.486L157.279 112.496C158.971 109.528 158.388 105.78 155.872 103.462L145.481 93.9823C145.954 89.6884 145.954 85.3555 145.481 81.0615L155.872 71.5823C158.388 69.2709 158.971 65.5157 157.279 62.548L144.008 39.5573C143.177 38.1174 141.879 37.0049 140.328 36.4041C138.778 35.8034 137.069 35.7505 135.484 36.2542L122.082 40.5198C120.405 39.2875 118.663 38.1427 116.862 37.1C114.929 35.9698 112.931 34.9563 110.89 34.0521L107.886 20.3219C107.531 18.6973 106.633 17.2426 105.338 16.1988C104.044 15.1551 102.432 14.5851 100.769 14.5834H74.2272C72.5645 14.5851 70.9522 15.1551 69.6579 16.1988C68.3635 17.2426 67.4647 18.6973 67.1105 20.3219L64.1355 34.0448C62.1959 34.8834 60.3001 35.824 58.4553 36.8594C56.5449 37.9677 54.6928 39.1927 52.9137 40.5052L39.5189 36.2396C37.9334 35.734 36.2227 35.786 34.6708 36.3868C33.1189 36.9877 31.8192 38.1013 30.9876 39.5427L17.7168 62.5334C16.892 63.9769 16.5821 65.6578 16.8378 67.3005C17.0935 68.9433 17.8996 70.4505 19.1241 71.575L29.5147 81.0323C29.0422 85.3263 29.0422 89.6592 29.5147 93.9532L19.1241 103.432C17.9013 104.556 17.0963 106.062 16.8406 107.703C16.585 109.345 16.8939 111.024 17.7168 112.467L31.0168 135.443C31.8484 136.884 33.1481 137.998 34.7 138.599C36.2518 139.2 37.9626 139.251 39.548 138.746L52.9428 134.48C56.4227 137.044 60.1766 139.213 64.1355 140.948L67.1032 154.685C67.4591 156.31 68.3596 157.764 69.6553 158.806C70.9511 159.849 72.5642 160.417 74.2272 160.417ZM87.5 133C112.629 133 133 112.629 133 87.5C133 62.371 112.629 42 87.5 42C62.371 42 42 62.371 42 87.5C42 112.629 62.371 133 87.5 133Z" fill="black"/>
<path d="M68.0781 76.2656C67.6094 75.7344 67.0156 75.4531 66.2969 75.4219C65.5781 75.3906 64.9531 75.6094 64.4219 76.0781L51.5312 87.7031C50.9688 88.2031 50.6875 88.8281 50.6875 89.5781C50.6875 90.3594 50.9688 91 51.5312 91.5L64.4219 103.125C64.9219 103.562 65.5 103.781 66.1562 103.781C66.9375 103.781 67.5781 103.5 68.0781 102.938C68.5469 102.406 68.7656 101.781 68.7344 101.062C68.7031 100.344 68.4219 99.75 67.8906 99.2812L57.1094 89.5781L67.8906 79.9219C68.4219 79.4531 68.7031 78.8594 68.7344 78.1406C68.7656 77.4219 68.5469 76.7969 68.0781 76.2656ZM92.9688 56.0156C92.25 55.8906 91.6094 56.0156 91.0469 56.3906C90.4531 56.7969 90.0938 57.3594 89.9688 58.0781L78.3438 119.953C78.2188 120.641 78.3594 121.281 78.7656 121.875C79.1719 122.469 79.7188 122.828 80.4062 122.953C80.5625 122.984 80.7188 123 80.875 123C82.3125 123 83.1562 122.297 83.4062 120.891L95.0312 59.0156C95.1562 58.3281 95.0156 57.6875 94.6094 57.0938C94.2031 56.5 93.6562 56.1406 92.9688 56.0156ZM105.297 76.2656C104.828 76.7969 104.609 77.4219 104.641 78.1406C104.672 78.8594 104.953 79.4531 105.484 79.9219L116.266 89.5781L105.484 99.2812C104.953 99.75 104.672 100.344 104.641 101.062C104.609 101.781 104.828 102.406 105.297 102.938C105.828 103.5 106.469 103.781 107.219 103.781C107.875 103.781 108.453 103.562 108.953 103.125L121.844 91.5C122.406 91 122.688 90.3594 122.688 89.5781C122.688 88.8281 122.406 88.2031 121.844 87.7031L108.953 76.0781C108.422 75.6094 107.797 75.3906 107.078 75.4219C106.359 75.4531 105.766 75.7344 105.297 76.2656Z" fill="black"/>
</svg>
