<svg width="105" height="68" viewBox="0 0 105 68" fill="none">
<path d="M59.75 66.8281C60.2812 66.0469 60.3594 65.2344 59.9844 64.3906L32.8906 2.51562C32.4531 1.48438 31.6719 0.96875 30.5469 0.96875C29.4219 0.96875 28.625 1.48438 28.1562 2.51562L1.10938 64.3906C0.828125 65.0469 0.8125 65.7031 1.0625 66.3594C1.3125 67.0156 1.76562 67.4844 2.42188 67.7656C2.76562 67.9219 3.10938 68 3.45312 68C4.57812 68 5.375 67.4844 5.84375 66.4531L30.5469 9.96875L53.6562 62.8438H24.0781C23.3594 62.8438 22.75 63.0938 22.25 63.5938C21.75 64.0938 21.5 64.7031 21.5 65.4219C21.5 66.1406 21.75 66.75 22.25 67.25C22.75 67.75 23.3594 68 24.0781 68H57.5938C58.5312 68 59.25 67.6094 59.75 66.8281ZM75.0781 6.125V65.4219C75.0781 66.1406 75.3281 66.75 75.8281 67.25C76.3281 67.75 76.9375 68 77.6562 68C78.375 68 78.9844 67.75 79.4844 67.25C79.9844 66.75 80.2344 66.1406 80.2344 65.4219V6.125H101.516C102.203 6.125 102.812 5.875 103.344 5.375C103.844 4.875 104.094 4.26562 104.094 3.54688C104.094 2.82813 103.844 2.21875 103.344 1.71875C102.812 1.21875 102.203 0.96875 101.516 0.96875H53.7969C53.0781 0.96875 52.4688 1.21875 51.9688 1.71875C51.4688 2.21875 51.2188 2.82813 51.2188 3.54688C51.2188 4.26562 51.4688 4.875 51.9688 5.375C52.4688 5.875 53.0781 6.125 53.7969 6.125H75.0781Z" fill="black"/>
</svg>
