<svg width="42" height="42" viewBox="0 0 42 42" fill="none" xmlns="http://www.w3.org/2000/svg">
<path fill-rule="evenodd" clip-rule="evenodd" d="M30.0827 27.0868L41.3801 38.3845C41.7772 38.7819 42.0002 39.3208 42 39.8825C41.9998 40.4443 41.7765 40.983 41.3791 41.3801C40.9817 41.7772 40.4429 42.0002 39.8811 42C39.3193 41.9998 38.7807 41.7764 38.3836 41.3791L27.0861 30.0813C23.7089 32.6972 19.4619 33.9282 15.2093 33.5239C10.9567 33.1196 7.01782 31.1104 4.19398 27.9049C1.37014 24.6995 -0.126551 20.5387 0.00839189 16.269C0.143335 11.9992 1.89977 7.9412 4.92039 4.92051C7.941 1.89982 11.9989 0.143338 16.2686 0.0083921C20.5382 -0.126554 24.6989 1.37017 27.9042 4.19408C31.1096 7.018 33.1187 10.957 33.523 15.2097C33.9273 19.4624 32.6964 23.7094 30.0806 27.0868H30.0827ZM16.8008 29.3988C20.1424 29.3988 23.3471 28.0714 25.7099 25.7085C28.0728 23.3455 29.4002 20.1408 29.4002 16.7991C29.4002 13.4574 28.0728 10.2527 25.7099 7.88975C23.3471 5.52684 20.1424 4.19937 16.8008 4.19937C13.4592 4.19937 10.2545 5.52684 7.89165 7.88975C5.5288 10.2527 4.20137 13.4574 4.20137 16.7991C4.20137 20.1408 5.5288 23.3455 7.89165 25.7085C10.2545 28.0714 13.4592 29.3988 16.8008 29.3988Z" fill="url(#paint0_linear_301_25)"/>
<defs>
<linearGradient id="paint0_linear_301_25" x1="21" y1="0" x2="21" y2="42" gradientUnits="userSpaceOnUse">
<stop stop-color="#239FC7"/>
<stop offset="0.499108" stop-color="#8166BA"/>
<stop offset="0.988711" stop-color="#F46737"/>
</linearGradient>
</defs>
</svg>
