<svg width="143" height="147" viewBox="0 0 143 147" fill="none" xmlns="http://www.w3.org/2000/svg">
<path fill-rule="evenodd" clip-rule="evenodd" d="M58.2272 146.417H84.7689C86.4306 146.415 88.0421 145.846 89.3363 144.804C90.6305 143.762 91.5299 142.309 91.8855 140.685L94.897 126.984C98.8537 125.253 102.605 123.086 106.082 120.524L119.477 124.79C121.063 125.295 122.773 125.243 124.325 124.642C125.877 124.042 127.177 122.928 128.008 121.486L141.279 98.4959C142.971 95.5282 142.388 91.7803 139.872 89.4615L129.481 79.9823C129.954 75.6884 129.954 71.3555 129.481 67.0615L139.872 57.5823C142.388 55.2709 142.971 51.5157 141.279 48.548L128.008 25.5573C127.177 24.1174 125.879 23.0049 124.328 22.4041C122.778 21.8034 121.069 21.7505 119.484 22.2542L106.082 26.5198C104.405 25.2875 102.663 24.1427 100.862 23.1C98.9293 21.9698 96.9314 20.9563 94.8897 20.0521L91.8855 6.32192C91.5314 4.69732 90.6326 3.24256 89.3382 2.19883C88.0439 1.15511 86.4316 0.585124 84.7689 0.583374H58.2272C56.5645 0.585124 54.9522 1.15511 53.6579 2.19883C52.3635 3.24256 51.4647 4.69732 51.1105 6.32192L48.1355 20.0448C46.1959 20.8834 44.3001 21.824 42.4553 22.8594C40.5449 23.9677 38.6928 25.1927 36.9137 26.5052L23.5189 22.2396C21.9334 21.734 20.2227 21.786 18.6708 22.3868C17.1189 22.9877 15.8192 24.1013 14.9876 25.5427L1.71679 48.5334C0.892022 49.9769 0.582083 51.6578 0.83777 53.3005C1.09346 54.9433 1.8996 56.4505 3.12408 57.575L13.5147 67.0323C13.0422 71.3263 13.0422 75.6592 13.5147 79.9532L3.12408 89.4323C1.90133 90.5565 1.09628 92.0623 0.840638 93.7034C0.584993 95.3446 0.893889 97.0239 1.71679 98.4667L15.0168 121.443C15.8484 122.884 17.1481 123.998 18.7 124.599C20.2518 125.2 21.9626 125.251 23.548 124.746L36.9428 120.48C40.4227 123.044 44.1766 125.213 48.1355 126.948L51.1032 140.685C51.4591 142.31 52.3596 143.764 53.6553 144.806C54.9511 145.849 56.5642 146.417 58.2272 146.417ZM71.5 119C96.629 119 117 98.629 117 73.5C117 48.371 96.629 28 71.5 28C46.371 28 26 48.371 26 73.5C26 98.629 46.371 119 71.5 119Z" fill="black"/>
<path d="M52.0781 62.2656C51.6094 61.7344 51.0156 61.4531 50.2969 61.4219C49.5781 61.3906 48.9531 61.6094 48.4219 62.0781L35.5312 73.7031C34.9688 74.2031 34.6875 74.8281 34.6875 75.5781C34.6875 76.3594 34.9688 77 35.5312 77.5L48.4219 89.125C48.9219 89.5625 49.5 89.7812 50.1562 89.7812C50.9375 89.7812 51.5781 89.5 52.0781 88.9375C52.5469 88.4062 52.7656 87.7812 52.7344 87.0625C52.7031 86.3438 52.4219 85.75 51.8906 85.2812L41.1094 75.5781L51.8906 65.9219C52.4219 65.4531 52.7031 64.8594 52.7344 64.1406C52.7656 63.4219 52.5469 62.7969 52.0781 62.2656ZM76.9688 42.0156C76.25 41.8906 75.6094 42.0156 75.0469 42.3906C74.4531 42.7969 74.0938 43.3594 73.9688 44.0781L62.3438 105.953C62.2188 106.641 62.3594 107.281 62.7656 107.875C63.1719 108.469 63.7188 108.828 64.4062 108.953C64.5625 108.984 64.7188 109 64.875 109C66.3125 109 67.1562 108.297 67.4062 106.891L79.0312 45.0156C79.1562 44.3281 79.0156 43.6875 78.6094 43.0938C78.2031 42.5 77.6562 42.1406 76.9688 42.0156ZM89.2969 62.2656C88.8281 62.7969 88.6094 63.4219 88.6406 64.1406C88.6719 64.8594 88.9531 65.4531 89.4844 65.9219L100.266 75.5781L89.4844 85.2812C88.9531 85.75 88.6719 86.3438 88.6406 87.0625C88.6094 87.7812 88.8281 88.4062 89.2969 88.9375C89.8281 89.5 90.4688 89.7812 91.2188 89.7812C91.875 89.7812 92.4531 89.5625 92.9531 89.125L105.844 77.5C106.406 77 106.688 76.3594 106.688 75.5781C106.688 74.8281 106.406 74.2031 105.844 73.7031L92.9531 62.0781C92.4219 61.6094 91.7969 61.3906 91.0781 61.4219C90.3594 61.4531 89.7656 61.7344 89.2969 62.2656Z" fill="black"/>
</svg>
