<svg width="44" height="35" viewBox="0 0 44 35" fill="none" xmlns="http://www.w3.org/2000/svg">
<path d="M26.3169 24.0161C30.1303 24.0161 33.2216 20.9247 33.2216 17.1113C33.2216 13.2979 30.1303 10.2065 26.3169 10.2065C22.5035 10.2065 19.4121 13.2979 19.4121 17.1113C19.4121 20.9247 22.5035 24.0161 26.3169 24.0161Z" stroke="url(#paint0_linear_301_29)" stroke-width="2" stroke-linecap="round" stroke-linejoin="round"/>
<path d="M21.7148 11.9673C20.7215 11.0779 19.492 10.4951 18.1748 10.2893C16.8576 10.0835 15.5089 10.2634 14.2917 10.8074C13.0745 11.3514 12.0408 12.2361 11.3154 13.3547C10.5901 14.4734 10.2041 15.7781 10.2041 17.1113C10.2041 18.4445 10.5901 19.7492 11.3154 20.8679C12.0408 21.9865 13.0745 22.8713 14.2917 23.4152C15.5089 23.9592 16.8576 24.1391 18.1748 23.9333C19.492 23.7275 20.7215 23.1447 21.7148 22.2554" stroke="url(#paint1_linear_301_29)" stroke-width="2" stroke-linecap="round" stroke-linejoin="round"/>
<path d="M37.8254 1H5.60317C3.06091 1 1 3.06091 1 5.60317V28.619C1 31.1613 3.06091 33.2222 5.60317 33.2222H37.8254C40.3677 33.2222 42.4286 31.1613 42.4286 28.619V5.60317C42.4286 3.06091 40.3677 1 37.8254 1Z" stroke="url(#paint2_linear_301_29)" stroke-width="2" stroke-linecap="round" stroke-linejoin="round"/>
<defs>
<linearGradient id="paint0_linear_301_29" x1="26.3169" y1="10.2065" x2="26.3169" y2="24.0161" gradientUnits="userSpaceOnUse">
<stop stop-color="#239FC7"/>
<stop offset="0.493899" stop-color="#8166BA"/>
<stop offset="1" stop-color="#F46737"/>
</linearGradient>
<linearGradient id="paint1_linear_301_29" x1="15.9594" y1="10.2065" x2="15.9594" y2="24.0161" gradientUnits="userSpaceOnUse">
<stop stop-color="#239FC7"/>
<stop offset="0.493899" stop-color="#8166BA"/>
<stop offset="1" stop-color="#F46737"/>
</linearGradient>
<linearGradient id="paint2_linear_301_29" x1="21.7143" y1="1" x2="21.7143" y2="33.2222" gradientUnits="userSpaceOnUse">
<stop stop-color="#239FC7"/>
<stop offset="0.493899" stop-color="#8166BA"/>
<stop offset="1" stop-color="#F46737"/>
</linearGradient>
</defs>
</svg>
