<?xml version="1.0" encoding="UTF-8" standalone="no"?><!DOCTYPE svg PUBLIC "-//W3C//DTD SVG 1.1//EN" "http://www.w3.org/Graphics/SVG/1.1/DTD/svg11.dtd"><svg width="100%" height="100%" viewBox="0 0 412 361" version="1.1" xmlns="http://www.w3.org/2000/svg" xmlns:xlink="http://www.w3.org/1999/xlink" xml:space="preserve" xmlns:serif="http://www.serif.com/" style="fill-rule:evenodd;clip-rule:evenodd;stroke-linejoin:round;stroke-miterlimit:2;"><g><g><path d="M30.238,360.317l161.269,-0l0,-60.476l-161.269,-0l-30.238,27.214l0,6.047l30.238,27.215Z"/></g><g><path d="M350.761,60.476l-161.27,0l0,-60.476l161.27,-0l30.238,27.214l-0,6.048l-30.238,27.214Z"/></g><g><path d="M32.389,0l161.269,0l0,60.476l-161.269,0l-30.238,-27.214l-0,-6.048l30.238,-27.214Z"/></g><g><path d="M350.761,360.317l-161.27,-0l0,-60.476l161.27,-0l30.238,27.214l-0,6.047l-30.238,27.215Z"/></g><g><path d="M350.761,299.841l-0,-161.27l60.476,0l-0,161.27l-27.214,30.238l-6.048,-0l-27.214,-30.238Z"/></g><g><path d="M196.563,141.826l-62.464,-0l-0,-42.229l62.464,-0l11.711,19.003l0,4.223l-11.711,19.003Z"/></g><g><path d="M74.607,99.597l62.463,-0l0,42.229l-62.463,-0l-11.712,-19.003l-0,-4.223l11.712,-19.003Z"/></g><g><path d="M196.563,252.387l-62.464,-0l-0,-42.229l62.464,-0l11.711,19.003l0,4.223l-11.711,19.003Z"/></g><g><path d="M74.607,210.158l62.463,-0l0,42.229l-62.463,-0l-11.712,-19.003l-0,-4.223l11.712,-19.003Z"/></g><g><path d="M85.884,154.541l122.614,-0l-0,42.229l-122.614,-0l-22.989,-19.003l-0,-4.223l22.989,-19.003Z"/></g><g><path d="M287.852,196.77l-122.613,-0l0,-42.229l122.613,-0l22.99,19.003l0,4.223l-22.99,19.003Z"/></g><g><path d="M411.237,60.476l-0,161.269l-60.476,0l-0,-161.269l27.214,-30.238l6.048,0l27.214,30.238Z"/></g></g></svg>