<svg width="270" height="270" viewBox="0 0 270 270" fill="none" xmlns="http://www.w3.org/2000/svg">
<path d="M236.25 16.875C240.726 16.875 245.018 18.6529 248.182 21.8176C251.347 24.9822 253.125 29.2745 253.125 33.75V236.25C253.125 240.726 251.347 245.018 248.182 248.182C245.018 251.347 240.726 253.125 236.25 253.125H33.75C29.2745 253.125 24.9822 251.347 21.8176 248.182C18.6529 245.018 16.875 240.726 16.875 236.25V33.75C16.875 29.2745 18.6529 24.9822 21.8176 21.8176C24.9822 18.6529 29.2745 16.875 33.75 16.875H236.25ZM33.75 0C24.7989 0 16.2145 3.55579 9.88515 9.88515C3.55579 16.2145 0 24.7989 0 33.75L0 236.25C0 245.201 3.55579 253.785 9.88515 260.115C16.2145 266.444 24.7989 270 33.75 270H236.25C245.201 270 253.785 266.444 260.115 260.115C266.444 253.785 270 245.201 270 236.25V33.75C270 24.7989 266.444 16.2145 260.115 9.88515C253.785 3.55579 245.201 0 236.25 0L33.75 0Z" fill="url(#paint0_linear_226_27)"/>
<path d="M115.662 78.4012C116.447 79.185 117.071 80.116 117.496 81.1411C117.922 82.1662 118.141 83.2651 118.141 84.3749C118.141 85.4848 117.922 86.5837 117.496 87.6088C117.071 88.6338 116.447 89.5649 115.662 90.3487L70.9936 135L115.662 179.651C117.246 181.236 118.136 183.384 118.136 185.625C118.136 187.866 117.246 190.014 115.662 191.599C114.077 193.183 111.929 194.073 109.688 194.073C107.447 194.073 105.299 193.183 103.714 191.599L53.0892 140.974C52.3034 140.19 51.68 139.259 51.2547 138.234C50.8293 137.209 50.6104 136.11 50.6104 135C50.6104 133.89 50.8293 132.791 51.2547 131.766C51.68 130.741 52.3034 129.81 53.0892 129.026L103.714 78.4012C104.498 77.6154 105.429 76.992 106.454 76.5667C107.479 76.1413 108.578 75.9224 109.688 75.9224C110.798 75.9224 111.897 76.1413 112.922 76.5667C113.947 76.992 114.878 77.6154 115.662 78.4012V78.4012ZM154.339 78.4012C153.553 79.185 152.93 80.116 152.505 81.1411C152.079 82.1662 151.86 83.2651 151.86 84.3749C151.86 85.4848 152.079 86.5837 152.505 87.6088C152.93 88.6338 153.553 89.5649 154.339 90.3487L199.007 135L154.339 179.651C152.755 181.236 151.865 183.384 151.865 185.625C151.865 187.866 152.755 190.014 154.339 191.599C155.924 193.183 158.072 194.073 160.313 194.073C162.554 194.073 164.702 193.183 166.287 191.599L216.912 140.974C217.697 140.19 218.321 139.259 218.746 138.234C219.172 137.209 219.391 136.11 219.391 135C219.391 133.89 219.172 132.791 218.746 131.766C218.321 130.741 217.697 129.81 216.912 129.026L166.287 78.4012C165.503 77.6154 164.572 76.992 163.547 76.5667C162.522 76.1413 161.423 75.9224 160.313 75.9224C159.203 75.9224 158.104 76.1413 157.079 76.5667C156.054 76.992 155.123 77.6154 154.339 78.4012V78.4012Z" fill="url(#paint1_linear_226_27)"/>
<defs>
<linearGradient id="paint0_linear_226_27" x1="3.5" y1="140.5" x2="267.5" y2="140.5" gradientUnits="userSpaceOnUse">
<stop stop-color="#239FC7"/>
<stop offset="0.499108" stop-color="#8166BA"/>
<stop offset="1" stop-color="#F46737"/>
</linearGradient>
<linearGradient id="paint1_linear_226_27" x1="52.7982" y1="137.404" x2="217.828" y2="137.404" gradientUnits="userSpaceOnUse">
<stop stop-color="#239FC7"/>
<stop offset="0.499108" stop-color="#8166BA"/>
<stop offset="1" stop-color="#F46737"/>
</linearGradient>
</defs>
</svg>
