<svg width="43" height="43" viewBox="0 0 43 43" fill="none" xmlns="http://www.w3.org/2000/svg">
<path d="M41.1243 6.80927L35.3999 1.09099C34.7012 0.392326 33.7659 0 32.7769 0C31.7879 0 30.8526 0.386952 30.1539 1.09099L23.9887 7.24459C23.29 7.94326 22.8976 8.88377 22.8976 9.87264C22.8976 10.8669 23.2846 11.7967 23.9887 12.5007L28.8048 17.3215C27.7076 19.8774 26.1312 22.1997 24.1607 24.163C22.1881 26.1461 19.8822 27.71 17.3237 28.8171L12.5077 23.9964C11.8089 23.2977 10.8737 22.9054 9.88467 22.9054C9.39685 22.9036 8.91357 22.9991 8.46317 23.1865C8.01276 23.3738 7.60428 23.6492 7.26166 23.9964L1.09113 30.15C0.392377 30.8486 0 31.7892 0 32.778C0 33.7723 0.387002 34.702 1.09113 35.4061L6.81015 41.1244C8.00341 42.3175 9.64817 43 11.3359 43C11.6853 43 12.0239 42.9731 12.3679 42.914C19.4845 41.7424 26.5472 37.9535 32.2501 32.2567C37.9477 26.5492 41.7317 19.4873 42.9142 12.3663C43.2528 10.3456 42.5756 8.26572 41.1243 6.80927V6.80927ZM39.1033 11.7268C38.0552 18.0631 34.6474 24.3833 29.5143 29.5158C24.3811 34.6483 18.0655 38.0556 11.7283 39.1036C10.9328 39.238 10.1158 38.9693 9.53529 38.3942L3.91839 32.778L9.87392 26.8179L16.3132 33.2671L16.3616 33.3155L17.5226 32.8855C21.0428 31.5914 24.2396 29.5474 26.8912 26.8952C29.5428 24.243 31.586 21.0459 32.879 17.5257L33.309 16.3648L26.816 9.87801L32.7715 3.91789L38.3884 9.53406C38.9689 10.1145 39.2377 10.9314 39.1033 11.7268Z" fill="url(#paint0_linear_301_34)"/>
<defs>
<linearGradient id="paint0_linear_301_34" x1="21.5" y1="0" x2="21.5" y2="43" gradientUnits="userSpaceOnUse">
<stop stop-color="#239FC7"/>
<stop offset="0.483482" stop-color="#8166BA"/>
<stop offset="1" stop-color="#F46737"/>
</linearGradient>
</defs>
</svg>
