<svg width="55" height="74" viewBox="0 0 55 74" fill="none" xmlns="http://www.w3.org/2000/svg">
<path d="M13.7559 0H21.6331V3.29389H17.0497V6.58778H21.6331V9.88167H13.7559V0Z" fill="black"/>
<path d="M23.2075 0H31.0878V2.86611H26.5045V3.4375H31.0878V10.0253H23.2075V7.01861H27.7909V6.44417H23.2075V0Z" fill="black"/>
<path d="M32.6636 0H40.5377V2.86611H35.9544V3.4375H40.5377V10.0253H32.6636V7.01861H37.2469V6.44417H32.6636V0Z" fill="black"/>
<path fill-rule="evenodd" clip-rule="evenodd" d="M27.4725 73.3334L6.25472 67.4423L0 14.4131H55L48.7483 67.4361L27.4725 73.3334ZM12.3658 38.4175L12.9494 44.9198H35.4903L34.7356 53.3531L27.4817 55.3148H27.4756L20.2339 53.3592L19.7694 48.1739H13.2397L14.1503 58.3856L27.4725 62.0828L40.8161 58.3856L42.4417 40.1623L42.6006 38.4175L43.7739 25.2511H11.1956L11.7883 31.7564H36.6483L36.0556 38.4175H12.3658V38.4175Z" fill="black"/>
</svg>
