<?xml version="1.0" encoding="UTF-8" standalone="no"?><!DOCTYPE svg PUBLIC "-//W3C//DTD SVG 1.1//EN" "http://www.w3.org/Graphics/SVG/1.1/DTD/svg11.dtd"><svg width="100%" height="100%" viewBox="0 0 412 361" version="1.1" xmlns="http://www.w3.org/2000/svg" xmlns:xlink="http://www.w3.org/1999/xlink" xml:space="preserve" xmlns:serif="http://www.serif.com/" style="fill-rule:evenodd;clip-rule:evenodd;stroke-linejoin:round;stroke-miterlimit:2;"><g><g><path d="M380.999,-0l-161.27,-0l0,60.476l161.27,0l30.238,-27.214l-0,-6.048l-30.238,-27.214Z"/></g><g><path d="M60.476,299.841l161.269,-0l0,60.476l-161.269,-0l-30.238,-27.215l0,-6.047l30.238,-27.214Z"/></g><g><path d="M378.848,360.317l-161.269,-0l-0,-60.476l161.269,-0l30.238,27.214l0,6.047l-30.238,27.215Z"/></g><g><path d="M60.476,-0l161.269,-0l0,60.476l-161.269,0l-30.238,-27.214l0,-6.048l30.238,-27.214Z"/></g><g><path d="M60.476,60.476l0,161.269l-60.476,0l0,-161.269l27.214,-30.238l6.048,0l27.214,30.238Z"/></g><g><path d="M115.56,78.622l90.058,0l0,36.702l-90.058,-0l-16.886,-16.516l-0,-3.67l16.886,-16.516Z"/></g><g><path d="M295.677,115.324l-90.059,-0l0,-36.702l90.059,0l16.886,16.516l0,3.67l-16.886,16.516Z"/></g><g><path d="M115.56,245.289l90.058,-0l0,36.701l-90.058,0l-16.886,-16.515l-0,-3.67l16.886,-16.516Z"/></g><g><path d="M295.677,281.99l-90.059,0l0,-36.701l90.059,-0l16.886,16.516l0,3.67l-16.886,16.515Z"/></g><g><path d="M330.914,110.131l-0,70.175l-36.702,0l0,-70.175l16.516,-13.158l3.67,-0l16.516,13.158Z"/></g><g><path d="M294.212,250.482l0,-70.176l36.702,0l-0,70.176l-16.516,13.158l-3.67,-0l-16.516,-13.158Z"/></g><g><path d="M-0,299.841l-0,-161.27l60.476,0l0,161.27l-27.214,30.238l-6.048,-0l-27.214,-30.238Z"/></g></g></svg>