<svg width="196" height="139" viewBox="0 0 196 139" fill="none" xmlns="http://www.w3.org/2000/svg">
<path d="M79.0781 57.7244C78.6094 57.1931 78.0156 56.9119 77.2969 56.8806C76.5781 56.8494 75.9531 57.0681 75.4219 57.5369L62.5312 69.1619C61.9688 69.6619 61.6875 70.2869 61.6875 71.0369C61.6875 71.8181 61.9688 72.4587 62.5312 72.9587L75.4219 84.5837C75.9219 85.0212 76.5 85.24 77.1562 85.24C77.9375 85.24 78.5781 84.9587 79.0781 84.3962C79.5469 83.865 79.7656 83.24 79.7344 82.5212C79.7031 81.8025 79.4219 81.2087 78.8906 80.74L68.1094 71.0369L78.8906 61.3806C79.4219 60.9119 79.7031 60.3181 79.7344 59.5994C79.7656 58.8806 79.5469 58.2556 79.0781 57.7244ZM103.969 37.4744C103.25 37.3494 102.609 37.4744 102.047 37.8494C101.453 38.2556 101.094 38.8181 100.969 39.5369L89.3438 101.412C89.2188 102.099 89.3594 102.74 89.7656 103.334C90.1719 103.927 90.7188 104.287 91.4062 104.412C91.5625 104.443 91.7188 104.459 91.875 104.459C93.3125 104.459 94.1562 103.756 94.4062 102.349L106.031 40.4744C106.156 39.7869 106.016 39.1462 105.609 38.5525C105.203 37.9587 104.656 37.5994 103.969 37.4744ZM116.297 57.7244C115.828 58.2556 115.609 58.8806 115.641 59.5994C115.672 60.3181 115.953 60.9119 116.484 61.3806L127.266 71.0369L116.484 80.74C115.953 81.2087 115.672 81.8025 115.641 82.5212C115.609 83.24 115.828 83.865 116.297 84.3962C116.828 84.9587 117.469 85.24 118.219 85.24C118.875 85.24 119.453 85.0212 119.953 84.5837L132.844 72.9587C133.406 72.4587 133.688 71.8181 133.688 71.0369C133.688 70.2869 133.406 69.6619 132.844 69.1619L119.953 57.5369C119.422 57.0681 118.797 56.8494 118.078 56.8806C117.359 56.9119 116.766 57.1931 116.297 57.7244Z" fill="black"/>
<rect x="2.02294" y="2.02294" width="191.954" height="134.413" rx="20.4541" stroke="black" stroke-width="4.04587"/>
<rect x="51.0162" y="2.47497" width="93.6429" height="133.968" rx="20.3864" stroke="black" stroke-width="4.03247"/>
</svg>
