<svg width="31" height="56" viewBox="0 0 31 56" fill="none" xmlns="http://www.w3.org/2000/svg">
<path d="M30.2759 35.819C30.2759 23.9797 8.44898 24.7528 8.44898 17.6047C8.44898 14.1449 11.7591 12.4551 15.5986 12.4551C22.0553 12.4551 23.205 16.6032 26.1293 16.6032C28.2003 16.6032 29.1972 15.2992 29.1972 13.8378C29.1972 10.4412 24.0476 7.87028 19.1093 6.97986V3.70212C19.1093 2.72025 18.7193 1.77861 18.025 1.08432C17.3307 0.390043 16.3891 0 15.4072 0C14.4254 0 13.4837 0.390043 12.7894 1.08432C12.0952 1.77861 11.7051 2.72025 11.7051 3.70212V7.0956C6.32091 8.32089 1.6898 12.0554 1.6898 18.1433C1.6898 29.5151 23.5136 29.0552 23.5136 37.0428C23.5136 39.8097 20.5183 42.5767 15.5986 42.5767C8.22058 42.5767 5.76228 37.5829 2.7654 37.5829C1.30554 37.5829 0 38.8113 0 40.6631C0 43.6044 4.9305 47.1445 11.7097 48.1337L11.7051 48.1568V51.8559C11.7329 52.8196 12.1353 53.7346 12.8269 54.4065C13.5184 55.0783 14.4446 55.4542 15.4088 55.4542C16.3729 55.4542 17.2991 55.0783 17.9907 54.4065C18.6822 53.7346 19.0846 52.8196 19.1124 51.8559V48.1568C19.1124 48.1136 19.0908 48.0797 19.0877 48.0411C25.188 46.9022 30.2759 42.9254 30.2759 35.819V35.819Z" fill="black"/>
</svg>
