<svg width="44" height="43" viewBox="0 0 44 43" fill="none" xmlns="http://www.w3.org/2000/svg">
<path d="M37.7143 14.3333H28.2857V4.77778C28.2845 3.51102 27.7874 2.29651 26.9036 1.40078C26.0197 0.505043 24.8214 0.00126486 23.5714 0H20.2196C19.464 0.00325086 18.7345 0.280928 18.1636 0.782642C17.5928 1.28436 17.2183 1.97686 17.1081 2.73448L15.7803 12.1579L10.1593 20.7037H0V43H33C35.9164 42.9966 38.7123 41.821 40.7745 39.7311C42.8367 37.6411 43.9967 34.8075 44 31.8519V20.7037C43.9979 19.0148 43.335 17.3957 42.1567 16.2015C40.9783 15.0073 39.3807 14.3354 37.7143 14.3333V14.3333ZM9.42857 39.8148H3.14286V23.8889H9.42857V39.8148ZM40.8571 31.8519C40.8546 33.963 40.026 35.9869 38.5531 37.4797C37.0801 38.9725 35.0831 39.8123 33 39.8148H12.5714V22.7789L18.7911 13.3236L20.2211 3.18519H23.5714C23.9882 3.18519 24.3879 3.35298 24.6826 3.65165C24.9773 3.95031 25.1429 4.3554 25.1429 4.77778V17.5185H37.7143C38.5476 17.5194 39.3465 17.8552 39.9357 18.4524C40.5249 19.0495 40.8563 19.8592 40.8571 20.7037V31.8519Z" fill="url(#paint0_linear_301_27)"/>
<defs>
<linearGradient id="paint0_linear_301_27" x1="22" y1="0" x2="22" y2="43" gradientUnits="userSpaceOnUse">
<stop stop-color="#239FC7"/>
<stop offset="0.525287" stop-color="#8166BA"/>
<stop offset="1" stop-color="#F46737"/>
</linearGradient>
</defs>
</svg>
