<svg width="118" height="25" viewBox="0 0 118 25" fill="none" xmlns="http://www.w3.org/2000/svg">
<path d="M1.616 19C1.408 19 1.224 18.952 1.064 18.856C0.904 18.76 0.824 18.608 0.824 18.4V2.08C0.824 1.872 0.896 1.72 1.04 1.624C1.2 1.512 1.368 1.456 1.544 1.456H10.04C10.248 1.456 10.4 1.536 10.496 1.696C10.592 1.84 10.64 2 10.64 2.176C10.64 2.368 10.584 2.544 10.472 2.704C10.376 2.848 10.232 2.92 10.04 2.92H2.408V9.52H6.2C6.376 9.52 6.512 9.592 6.608 9.736C6.72 9.88 6.776 10.048 6.776 10.24C6.776 10.4 6.728 10.552 6.632 10.696C6.552 10.84 6.408 10.912 6.2 10.912H2.408V18.4C2.408 18.608 2.32 18.76 2.144 18.856C1.984 18.952 1.808 19 1.616 19ZM14.3806 19.168C13.3726 19.168 12.4766 18.976 11.6926 18.592C10.9246 18.208 10.3166 17.68 9.86863 17.008C9.43663 16.32 9.22063 15.52 9.22063 14.608V11.944C9.22063 11.144 9.42863 10.408 9.84463 9.736C10.2606 9.048 10.8126 8.504 11.5006 8.104C12.2046 7.704 12.9726 7.504 13.8046 7.504C14.6046 7.504 15.3406 7.696 16.0126 8.08C16.7006 8.448 17.2526 8.96 17.6686 9.616C18.0846 10.272 18.2926 11.032 18.2926 11.896C18.2926 12.504 18.1886 12.944 17.9806 13.216C17.7726 13.488 17.5086 13.656 17.1886 13.72C16.8846 13.768 16.5566 13.792 16.2046 13.792H10.7806V14.68C10.7806 15.64 11.1246 16.4 11.8126 16.96C12.5006 17.52 13.3726 17.8 14.4286 17.8C15.0686 17.8 15.5646 17.72 15.9166 17.56C16.2686 17.4 16.5406 17.24 16.7326 17.08C16.9406 16.92 17.1326 16.84 17.3086 16.84C17.4366 16.84 17.5486 16.888 17.6446 16.984C17.7566 17.064 17.8366 17.16 17.8846 17.272C17.9486 17.384 17.9806 17.488 17.9806 17.584C17.9806 17.76 17.8366 17.976 17.5486 18.232C17.2606 18.488 16.8446 18.712 16.3006 18.904C15.7566 19.08 15.1166 19.168 14.3806 19.168ZM10.7806 12.64H15.5806C16.0606 12.64 16.3806 12.592 16.5406 12.496C16.7006 12.384 16.7806 12.16 16.7806 11.824C16.7806 11.312 16.6526 10.832 16.3966 10.384C16.1406 9.92 15.7886 9.544 15.3406 9.256C14.8926 8.952 14.3726 8.8 13.7806 8.8C13.2366 8.8 12.7326 8.936 12.2686 9.208C11.8206 9.48 11.4606 9.832 11.1886 10.264C10.9166 10.696 10.7806 11.184 10.7806 11.728V12.64ZM25.4448 19.168C24.6928 19.168 24.0208 18.984 23.4288 18.616C22.8368 18.248 22.4128 17.816 22.1568 17.32V18.376C22.1568 18.536 22.0848 18.68 21.9408 18.808C21.7968 18.936 21.6208 19 21.4128 19C21.2048 19 21.0208 18.936 20.8608 18.808C20.7168 18.68 20.6448 18.536 20.6448 18.376V1.288C20.6448 1.096 20.7168 0.951999 20.8608 0.855999C21.0208 0.743999 21.2048 0.688 21.4128 0.688C21.6368 0.688 21.8208 0.743999 21.9648 0.855999C22.1248 0.951999 22.2048 1.096 22.2048 1.288V9.328C22.4768 8.864 22.8768 8.448 23.4048 8.08C23.9488 7.696 24.6128 7.504 25.3968 7.504C26.1808 7.504 26.8928 7.712 27.5328 8.128C28.1888 8.528 28.7088 9.072 29.0928 9.76C29.4928 10.432 29.6928 11.184 29.6928 12.016V14.608C29.6928 15.392 29.4928 16.136 29.0928 16.84C28.7088 17.544 28.1968 18.112 27.5568 18.544C26.9168 18.96 26.2128 19.168 25.4448 19.168ZM25.1568 17.728C25.7008 17.728 26.1968 17.584 26.6448 17.296C27.0928 16.992 27.4528 16.6 27.7248 16.12C27.9968 15.64 28.1328 15.136 28.1328 14.608V12.016C28.1328 11.488 27.9968 10.992 27.7248 10.528C27.4528 10.064 27.0928 9.688 26.6448 9.4C26.1968 9.096 25.6928 8.944 25.1328 8.944C24.6528 8.944 24.1888 9.072 23.7408 9.328C23.2928 9.568 22.9248 9.912 22.6368 10.36C22.3488 10.808 22.2048 11.36 22.2048 12.016V15.352C22.2048 15.592 22.3328 15.904 22.5888 16.288C22.8608 16.656 23.2208 16.992 23.6688 17.296C24.1168 17.584 24.6128 17.728 25.1568 17.728ZM33.0138 19C32.8058 19 32.6218 18.936 32.4618 18.808C32.3178 18.68 32.2458 18.536 32.2458 18.376V8.248C32.2458 8.056 32.3178 7.912 32.4618 7.816C32.6218 7.704 32.8058 7.648 33.0138 7.648C33.2218 7.648 33.3978 7.704 33.5418 7.816C33.6858 7.912 33.7578 8.056 33.7578 8.248V9.424C33.9338 9.088 34.1738 8.776 34.4778 8.488C34.7818 8.2 35.1418 7.968 35.5578 7.792C35.9738 7.6 36.4458 7.504 36.9738 7.504H37.8138C37.9898 7.504 38.1338 7.576 38.2458 7.72C38.3738 7.864 38.4378 8.032 38.4378 8.224C38.4378 8.432 38.3738 8.608 38.2458 8.752C38.1338 8.88 37.9898 8.944 37.8138 8.944H36.9738C36.4458 8.944 35.9338 9.088 35.4378 9.376C34.9578 9.664 34.5658 10.064 34.2618 10.576C33.9578 11.088 33.8058 11.712 33.8058 12.448V18.376C33.8058 18.536 33.7258 18.68 33.5658 18.808C33.4218 18.936 33.2378 19 33.0138 19ZM44.6557 19.168C43.8077 19.168 43.0317 18.96 42.3277 18.544C41.6397 18.128 41.0877 17.576 40.6717 16.888C40.2717 16.184 40.0717 15.44 40.0717 14.656V8.272C40.0717 8.112 40.1517 7.968 40.3117 7.84C40.4717 7.712 40.6557 7.648 40.8637 7.648C41.0717 7.648 41.2477 7.712 41.3917 7.84C41.5517 7.968 41.6317 8.112 41.6317 8.272V14.656C41.6317 15.184 41.7677 15.68 42.0397 16.144C42.3117 16.608 42.6717 16.992 43.1197 17.296C43.5677 17.584 44.0717 17.728 44.6317 17.728C45.2077 17.728 45.7197 17.584 46.1677 17.296C46.6157 17.008 46.9677 16.632 47.2237 16.168C47.4957 15.688 47.6317 15.184 47.6317 14.656V8.248C47.6317 8.072 47.7117 7.928 47.8717 7.816C48.0317 7.704 48.2157 7.648 48.4237 7.648C48.6637 7.648 48.8477 7.704 48.9757 7.816C49.1197 7.928 49.1917 8.072 49.1917 8.248V14.656C49.1917 15.472 48.9837 16.224 48.5677 16.912C48.1677 17.584 47.6157 18.128 46.9117 18.544C46.2237 18.96 45.4717 19.168 44.6557 19.168ZM54.5939 19.168C53.6819 19.168 52.9059 18.912 52.2659 18.4C51.6419 17.872 51.3299 17.072 51.3299 16C51.3299 15.12 51.5619 14.448 52.0259 13.984C52.5059 13.504 53.1619 13.176 53.9939 13C54.8419 12.808 55.8179 12.712 56.9219 12.712H58.1459V12.16C58.1459 11.632 58.0499 11.12 57.8579 10.624C57.6819 10.112 57.3859 9.696 56.9699 9.376C56.5699 9.04 56.0179 8.872 55.3139 8.872C54.7859 8.872 54.3539 8.928 54.0179 9.04C53.6819 9.152 53.4179 9.272 53.2259 9.4C53.0339 9.512 52.8739 9.568 52.7459 9.568C52.5539 9.568 52.3939 9.472 52.2659 9.28C52.1539 9.088 52.0979 8.912 52.0979 8.752C52.0979 8.528 52.2659 8.328 52.6019 8.152C52.9379 7.96 53.3539 7.808 53.8499 7.696C54.3619 7.568 54.8659 7.504 55.3619 7.504C56.4339 7.504 57.2819 7.728 57.9059 8.176C58.5459 8.608 59.0019 9.176 59.2739 9.88C59.5619 10.584 59.7059 11.336 59.7059 12.136V18.376C59.7059 18.552 59.6339 18.704 59.4899 18.832C59.3619 18.944 59.1779 19 58.9379 19C58.7459 19 58.5699 18.944 58.4099 18.832C58.2659 18.704 58.1939 18.552 58.1939 18.376V17.32C57.7939 17.8 57.2979 18.232 56.7059 18.616C56.1139 18.984 55.4099 19.168 54.5939 19.168ZM54.9779 17.848C55.5059 17.848 56.0099 17.712 56.4899 17.44C56.9699 17.168 57.3619 16.84 57.6659 16.456C57.9859 16.056 58.1459 15.68 58.1459 15.328V13.792H57.1379C56.4179 13.792 55.7299 13.84 55.0739 13.936C54.4339 14.016 53.9059 14.2 53.4899 14.488C53.0899 14.776 52.8899 15.232 52.8899 15.856C52.8899 16.544 53.0899 17.048 53.4899 17.368C53.9059 17.688 54.4019 17.848 54.9779 17.848ZM63.3654 19C63.1574 19 62.9734 18.936 62.8134 18.808C62.6694 18.68 62.5974 18.536 62.5974 18.376V8.248C62.5974 8.056 62.6694 7.912 62.8134 7.816C62.9734 7.704 63.1574 7.648 63.3654 7.648C63.5734 7.648 63.7494 7.704 63.8934 7.816C64.0374 7.912 64.1094 8.056 64.1094 8.248V9.424C64.2854 9.088 64.5254 8.776 64.8294 8.488C65.1334 8.2 65.4934 7.968 65.9094 7.792C66.3254 7.6 66.7974 7.504 67.3254 7.504H68.1654C68.3414 7.504 68.4854 7.576 68.5974 7.72C68.7254 7.864 68.7894 8.032 68.7894 8.224C68.7894 8.432 68.7254 8.608 68.5974 8.752C68.4854 8.88 68.3414 8.944 68.1654 8.944H67.3254C66.7974 8.944 66.2854 9.088 65.7894 9.376C65.3094 9.664 64.9174 10.064 64.6134 10.576C64.3094 11.088 64.1574 11.712 64.1574 12.448V18.376C64.1574 18.536 64.0774 18.68 63.9174 18.808C63.7734 18.936 63.5894 19 63.3654 19ZM70.1113 24.568C69.9033 24.568 69.7273 24.512 69.5833 24.4C69.4393 24.304 69.3673 24.128 69.3673 23.872C69.3673 23.68 69.4073 23.512 69.4873 23.368C69.5673 23.224 69.6953 23.152 69.8713 23.152C70.2553 23.152 70.6233 23.032 70.9753 22.792C71.3273 22.552 71.6553 22.208 71.9593 21.76C72.2633 21.328 72.5353 20.832 72.7753 20.272C73.0153 19.728 73.2073 19.144 73.3513 18.52L69.4153 8.488C69.3833 8.392 69.3673 8.312 69.3673 8.248C69.3673 8.104 69.4153 7.984 69.5113 7.888C69.6233 7.776 69.7513 7.688 69.8953 7.624C70.0553 7.544 70.1993 7.504 70.3273 7.504C70.4553 7.504 70.5673 7.536 70.6633 7.6C70.7753 7.648 70.8473 7.728 70.8793 7.84L74.1673 16.672L77.2633 7.84C77.3113 7.728 77.3833 7.648 77.4793 7.6C77.5753 7.536 77.6793 7.504 77.7913 7.504C77.9193 7.504 78.0553 7.536 78.1993 7.6C78.3593 7.664 78.4873 7.752 78.5833 7.864C78.6953 7.976 78.7513 8.112 78.7513 8.272C78.7513 8.352 78.7353 8.424 78.7033 8.488L74.9833 18.544C74.7433 19.184 74.4873 19.856 74.2153 20.56C73.9433 21.264 73.6233 21.912 73.2553 22.504C72.9033 23.112 72.4713 23.608 71.9593 23.992C71.4473 24.376 70.8313 24.568 70.1113 24.568ZM87.0821 19C86.8741 19 86.6901 18.952 86.5301 18.856C86.3701 18.744 86.2901 18.584 86.2901 18.376V4.168L85.3301 5.704C85.2661 5.8 85.1941 5.872 85.1141 5.92C85.0341 5.968 84.9541 5.992 84.8741 5.992C84.6981 5.992 84.5461 5.92 84.4181 5.776C84.3061 5.632 84.2501 5.472 84.2501 5.296C84.2501 5.184 84.2901 5.056 84.3701 4.912C84.4501 4.752 84.5221 4.64 84.5861 4.576L86.5781 1.792C86.6581 1.696 86.7381 1.616 86.8181 1.552C86.8981 1.472 87.0181 1.432 87.1781 1.432C87.3541 1.432 87.5141 1.488 87.6581 1.6C87.8021 1.696 87.8741 1.848 87.8741 2.056V18.376C87.8741 18.584 87.7861 18.744 87.6101 18.856C87.4501 18.952 87.2741 19 87.0821 19ZM97.2191 19C97.0271 19 96.8431 18.952 96.6671 18.856C96.5071 18.744 96.4271 18.584 96.4271 18.376V14.872H90.3311C90.1391 14.872 89.9871 14.816 89.8751 14.704C89.7631 14.576 89.7071 14.416 89.7071 14.224C89.7071 14.144 89.7151 14.072 89.7311 14.008C89.7471 13.944 89.7711 13.88 89.8031 13.816L95.8271 1.96C95.9071 1.768 96.0111 1.64 96.1391 1.576C96.2831 1.496 96.4271 1.456 96.5711 1.456C96.6831 1.456 96.7951 1.488 96.9071 1.552C97.0351 1.6 97.1391 1.672 97.2191 1.768C97.2991 1.864 97.3391 1.976 97.3391 2.104C97.3391 2.184 97.3151 2.288 97.2671 2.416L91.7471 13.36H96.4271V8.728C96.4271 8.52 96.5071 8.376 96.6671 8.296C96.8431 8.2 97.0271 8.152 97.2191 8.152C97.4271 8.152 97.6111 8.2 97.7711 8.296C97.9311 8.376 98.0111 8.52 98.0111 8.728V13.36H99.3311C99.5391 13.36 99.6911 13.44 99.7871 13.6C99.8991 13.744 99.9551 13.912 99.9551 14.104C99.9551 14.296 99.8911 14.472 99.7631 14.632C99.6511 14.792 99.5071 14.872 99.3311 14.872H98.0111V18.376C98.0111 18.584 97.9311 18.744 97.7711 18.856C97.6111 18.952 97.4271 19 97.2191 19ZM105.459 19C104.227 19 103.283 18.72 102.627 18.16C101.971 17.6 101.643 16.704 101.643 15.472V2.848C101.643 2.656 101.723 2.512 101.883 2.416C102.059 2.304 102.235 2.248 102.411 2.248C102.619 2.248 102.803 2.304 102.963 2.416C103.123 2.512 103.203 2.656 103.203 2.848V7.648H106.323C106.483 7.648 106.611 7.712 106.707 7.84C106.803 7.968 106.851 8.12 106.851 8.296C106.851 8.472 106.803 8.624 106.707 8.752C106.611 8.88 106.483 8.944 106.323 8.944H103.203V15.472C103.203 16.256 103.371 16.808 103.707 17.128C104.043 17.432 104.627 17.584 105.459 17.584H106.131C106.355 17.584 106.523 17.656 106.635 17.8C106.763 17.928 106.827 18.088 106.827 18.28C106.827 18.472 106.763 18.64 106.635 18.784C106.523 18.928 106.355 19 106.131 19H105.459ZM109.561 19C109.353 19 109.169 18.936 109.009 18.808C108.865 18.68 108.793 18.536 108.793 18.376V1.288C108.793 1.096 108.865 0.951999 109.009 0.855999C109.169 0.743999 109.353 0.688 109.561 0.688C109.785 0.688 109.969 0.743999 110.113 0.855999C110.273 0.951999 110.353 1.096 110.353 1.288V9.328C110.625 8.864 111.025 8.448 111.553 8.08C112.081 7.696 112.737 7.504 113.521 7.504C114.289 7.504 114.993 7.712 115.633 8.128C116.289 8.528 116.809 9.072 117.193 9.76C117.577 10.432 117.769 11.184 117.769 12.016V18.376C117.769 18.584 117.689 18.744 117.529 18.856C117.369 18.952 117.185 19 116.977 19C116.801 19 116.625 18.952 116.449 18.856C116.289 18.744 116.209 18.584 116.209 18.376V12.016C116.209 11.488 116.073 10.992 115.801 10.528C115.529 10.064 115.169 9.688 114.721 9.4C114.273 9.096 113.777 8.944 113.233 8.944C112.753 8.944 112.289 9.072 111.841 9.328C111.409 9.568 111.049 9.912 110.761 10.36C110.489 10.808 110.353 11.36 110.353 12.016V18.376C110.353 18.536 110.273 18.68 110.113 18.808C109.969 18.936 109.785 19 109.561 19Z" fill="black"/>
</svg>
