<svg width="37" height="56" viewBox="0 0 37 56" fill="none" xmlns="http://www.w3.org/2000/svg">
<path d="M18.5009 27.7496C18.5009 15.4209 37 15.4209 37 27.7496C37 40.0783 18.5009 40.0783 18.5009 27.7496ZM0.00173494 46.2487C0.00105102 45.034 0.239809 43.831 0.704357 42.7086C1.16891 41.5862 1.85013 40.5663 2.70909 39.7074C3.56805 38.8484 4.58789 38.1672 5.7103 37.7026C6.83271 37.2381 8.03569 36.9993 9.25043 37H18.4991V46.2487C18.4991 58.5774 0 58.5774 0 46.2487H0.00173494ZM18.5009 0.0017357V18.5009H27.7496C40.0783 18.5009 40.0783 0.0017357 27.7496 0.0017357H18.5009ZM0.00173494 9.25044C0.00105102 10.4652 0.239809 11.6682 0.704357 12.7906C1.16891 13.913 1.85013 14.9328 2.70909 15.7918C3.56805 16.6507 4.58789 17.332 5.7103 17.7965C6.83271 18.2611 8.03569 18.4998 9.25043 18.4991H18.4991V1.46514e-06H9.25043C8.03569 -0.000682451 6.83271 0.238076 5.7103 0.702624C4.58789 1.16717 3.56805 1.8484 2.70909 2.70736C1.85013 3.56631 1.16891 4.58616 0.704357 5.70857C0.239809 6.83098 0.00105102 8.03395 0.00173494 9.2487V9.25044ZM0.00173494 27.7496C0.00105102 28.9643 0.239809 30.1673 0.704357 31.2897C1.16891 32.4121 1.85013 33.432 2.70909 34.2909C3.56805 35.1499 4.58789 35.8311 5.7103 36.2956C6.83271 36.7602 8.03569 36.999 9.25043 36.9983H18.4991V18.4991H9.25043C8.03569 18.4985 6.83271 18.7372 5.7103 19.2018C4.58789 19.6663 3.56805 20.3475 2.70909 21.2065C1.85013 22.0654 1.16891 23.0853 0.704357 24.2077C0.239809 25.3301 0.00105102 26.5331 0.00173494 27.7478V27.7496Z" fill="black"/>
</svg>
