<svg width="56" height="75" viewBox="0 0 56 75" fill="none" xmlns="http://www.w3.org/2000/svg">
<path d="M6.47119 0H9.83741V3.32578H12.9174V0H16.2836V10.0676H12.9174V6.69822H9.83741V10.0676H6.4743V0H6.47119Z" fill="black"/>
<path d="M20.7079 3.33822H17.7461V0H27.039V3.33822H24.0741V10.0676H20.7079V3.33822Z" fill="black"/>
<path d="M28.5137 0H32.023L34.1821 3.53733L36.3381 0H39.8474V10.0676H36.4968V5.07733L34.1821 8.65822H34.123L31.8052 5.08044V10.0676H28.5137V0V0Z" fill="black"/>
<path d="M41.5215 0H44.8908V6.74178H49.6197V10.0707H41.5215V0V0Z" fill="black"/>
<path fill-rule="evenodd" clip-rule="evenodd" d="M6.36533 68.6685L0 14.6752H56L49.6316 68.6623L27.9689 74.6667L6.36533 68.6685ZM19.236 39.1129L18.6324 32.3307H43.9724L44.5636 25.7103H11.3991L13.1849 45.7365H36.1356L35.3671 54.3232L27.9813 56.3205H27.9751L20.6018 54.3294L20.1289 49.0498H13.4773L14.4044 59.4472L27.9689 63.2116L41.5551 59.4472L43.2102 40.8925L43.372 39.1161H19.236V39.1129Z" fill="black"/>
</svg>
