<svg width="40" height="56" viewBox="0 0 40 56" fill="none" xmlns="http://www.w3.org/2000/svg">
<path d="M10.0098 43.9568H29.9901V47.9529H10.0098V43.9568Z" fill="black"/>
<path d="M14.0059 51.949H25.9941V55.945H14.0059V51.949Z" fill="black"/>
<path d="M20.0002 0C14.7011 0 9.61901 2.10507 5.87196 5.85212C2.12492 9.59916 0.0198482 14.6812 0.0198482 19.9804C-0.115271 22.8842 0.440982 25.7786 1.64284 28.4255C2.84471 31.0724 4.65783 33.3961 6.93306 35.2054C8.93109 37.0636 10.01 38.1225 10.01 39.9607H14.0061C14.0061 36.2844 11.7883 34.2264 9.63041 32.2483C7.76296 30.8183 6.27465 28.9521 5.29583 26.8133C4.31701 24.6746 3.87754 22.3284 4.01592 19.9804C4.01592 15.7411 5.69998 11.6754 8.69761 8.67777C11.6953 5.68013 15.7609 3.99607 20.0002 3.99607C24.2395 3.99607 28.3052 5.68013 31.3028 8.67777C34.3005 11.6754 35.9845 15.7411 35.9845 19.9804C36.1206 22.3301 35.6781 24.6774 34.6957 26.8163C33.7133 28.9552 32.2212 30.8204 30.3501 32.2483C28.2122 34.2464 25.9943 36.2444 25.9943 39.9607H29.9904C29.9904 38.1225 31.0494 37.0636 33.0674 35.1854C35.341 33.3792 37.1533 31.0589 38.3552 28.4155C39.5571 25.7721 40.1141 22.8811 39.9806 19.9804C39.9806 17.3565 39.4638 14.7583 38.4597 12.3342C37.4556 9.91008 35.9838 7.70746 34.1285 5.85212C32.2731 3.99677 30.0705 2.52502 27.6464 1.52092C25.2222 0.516808 22.6241 0 20.0002 0V0Z" fill="black"/>
</svg>
