<svg width="56" height="56" viewBox="0 0 56 56" fill="none" xmlns="http://www.w3.org/2000/svg">
<path d="M0 0H56V56H0V0ZM14.7292 46.8125C16.1875 50.0208 18.8125 51.625 22.6042 51.625C25.0347 51.625 26.9549 50.9687 28.3646 49.6562C29.7743 48.3437 30.4792 46.375 30.4792 43.75V25.6667H25.2292V43.6042C25.2292 45.8403 24.3056 46.9583 22.4583 46.9583C21.1944 46.9583 20.0278 46.0347 18.9583 44.1875L14.7292 46.8125ZM33.25 46.2292C35.0972 49.8264 38.3056 51.625 42.875 51.625C45.5 51.625 47.6146 50.9687 49.2187 49.6562C50.8229 48.3437 51.625 46.5694 51.625 44.3333C51.625 42.1944 51.066 40.5417 49.9479 39.375C48.8299 38.2083 47.0556 37.0903 44.625 36.0208L43.3125 35.4375C42.1458 34.9514 41.3194 34.4896 40.8333 34.0521C40.3472 33.6146 40.1042 33.0069 40.1042 32.2292C40.1042 31.6458 40.3229 31.1354 40.7604 30.6979C41.1979 30.2604 41.8056 30.0417 42.5833 30.0417C44.0417 30.0417 45.2083 30.7708 46.0833 32.2292L50.0208 29.6042C48.4653 26.7847 45.9861 25.375 42.5833 25.375C40.25 25.375 38.3785 26.0312 36.9687 27.3437C35.559 28.6562 34.8542 30.3333 34.8542 32.375C34.8542 34.4167 35.3889 36.0208 36.4583 37.1875C37.5278 38.3542 39.1319 39.375 41.2708 40.25L42.5833 40.8333C43.5556 41.3194 44.2604 41.6597 44.6979 41.8542C45.1354 42.0486 45.5243 42.3646 45.8646 42.8021C46.2049 43.2396 46.375 43.75 46.375 44.3333C46.375 45.1111 46.059 45.7431 45.4271 46.2292C44.7951 46.7153 43.9444 46.9583 42.875 46.9583C40.6389 46.9583 38.8889 45.8889 37.625 43.75L33.25 46.2292Z" fill="black"/>
</svg>
