<?xml version="1.0" encoding="UTF-8" standalone="no"?>
<!DOCTYPE svg PUBLIC "-//W3C//DTD SVG 1.1//EN" "http://www.w3.org/Graphics/SVG/1.1/DTD/svg11.dtd">
<svg width="100%" height="100%" viewBox="0 0 189 183" version="1.1" xmlns="http://www.w3.org/2000/svg" xmlns:xlink="http://www.w3.org/1999/xlink" xml:space="preserve" xmlns:serif="http://www.serif.com/" style="fill-rule:evenodd;clip-rule:evenodd;stroke-linejoin:round;stroke-miterlimit:2;">
    <g transform="matrix(1,0,0,1,-294.5,-169)">
        <g transform="matrix(1,0,0,1,-11,-31)">
            <g transform="matrix(0.707107,-0.707107,0.53033,0.53033,-11.1826,408.995)">
                <path d="M400,200L320,200L320,240L400,240L413.586,222L413.586,218L400,200Z"/>
            </g>
            <g transform="matrix(1.11022e-16,1,-0.75,5.55112e-17,501.158,-31)">
                <path d="M400,200L320,200L320,240L400,240L413.586,222L413.586,218L400,200Z"/>
            </g>
            <g transform="matrix(1.11022e-16,1,-0.75,5.55112e-17,628.842,-31)">
                <path d="M400,200L320,200L320,240L400,240L413.586,222L413.586,218L400,200Z"/>
            </g>
            <g transform="matrix(-0.707107,-0.707107,-0.53033,0.53033,811.183,408.837)">
                <path d="M400,200L320,200L320,240L400,240L413.586,222L413.586,218L400,200Z"/>
            </g>
            <g transform="matrix(1,0,0,1,0.5,0)">
                <g transform="matrix(1,0,0,0.75,79,50)">
                    <path d="M400,200L320,200L320,240L400,240L415,222L415,218L400,200Z"/>
                </g>
                <g transform="matrix(-1,0,0,0.75,720,50)">
                    <path d="M400,200L320,200L320,240L400,240L415,222L415,218L400,200Z"/>
                </g>
            </g>
            <g transform="matrix(0.378947,0,0,1,249.421,105)">
                <g transform="matrix(1,0,0,0.75,77.3611,50)">
                    <path d="M400,200L320,200L320,240L400,240L441.389,222L441.389,218L400,200Z"/>
                </g>
                <g transform="matrix(-1,0,0,0.75,720,50)">
                    <path d="M400,200L320,200L320,240L400,240L444.028,222L444.028,218L400,200Z"/>
                </g>
            </g>
        </g>
    </g>
</svg>
