<svg width="33" height="55" viewBox="0 0 33 55" fill="none" xmlns="http://www.w3.org/2000/svg">
<path d="M16.167 1.82065L17.509 0.591365C17.3386 0.405025 17.1313 0.25621 16.9003 0.154396C16.6692 0.0525814 16.4195 0 16.167 0C15.9145 0 15.6648 0.0525814 15.4337 0.154396C15.2027 0.25621 14.9954 0.405025 14.825 0.591365L16.167 1.82065ZM16.167 49.1008L14.7377 50.2246C14.9079 50.441 15.1249 50.6159 15.3725 50.7361C15.6201 50.8564 15.8918 50.9189 16.167 50.9189C16.4423 50.9189 16.7139 50.8564 16.9615 50.7361C17.2091 50.6159 17.4262 50.441 17.5963 50.2246L16.167 49.1008ZM5.70354 35.7824L4.27422 36.9098L5.70354 35.7824ZM6.59822 12.2623L5.25619 11.0294L6.59822 12.255V12.2623ZM25.7358 12.2623L27.0778 11.033L25.7358 12.2587V12.2623ZM26.6305 35.7824L28.0598 36.9098L26.6305 35.7824ZM17.9855 54.5562V1.82065H14.3485V54.5562H17.9855ZM17.5963 47.977L7.13285 34.6622L4.27422 36.9098L14.7377 50.2283L17.5963 47.9806V47.977ZM7.93661 13.4879L17.5127 3.04993L14.8213 0.591365L5.25619 11.0294L7.93298 13.4879H7.93661ZM14.825 3.04993L24.3974 13.4879L27.0778 11.033L17.509 0.595001L14.8213 3.0463L14.825 3.04993ZM25.2012 34.6585L14.7377 47.977L17.5963 50.2246L28.0598 36.9062L25.2012 34.6585V34.6585ZM24.3974 13.4916C27.018 16.3524 28.5371 20.0512 28.6836 23.9282C28.8302 27.8051 27.5947 31.608 25.1975 34.6585L28.0598 36.9062C30.9897 33.1771 32.4995 28.5283 32.3196 23.7893C32.1397 19.0503 30.282 14.5293 27.0778 11.033L24.3974 13.4879V13.4916ZM7.13285 34.6585C4.73619 31.6076 3.50133 27.8044 3.64855 23.9275C3.79577 20.0506 5.31549 16.352 7.93661 13.4916L5.25619 11.0294C2.05202 14.5256 0.194263 19.0466 0.014401 23.7856C-0.165461 28.5247 1.34427 33.1735 4.27422 36.9025L7.13285 34.6549V34.6585Z" fill="black"/>
</svg>
