<svg width="56" height="56" viewBox="0 0 56 56" fill="none" xmlns="http://www.w3.org/2000/svg">
<path d="M26.1662 0.0150573C26.0459 0.0259948 25.6627 0.064276 25.3177 0.0916198C17.3639 0.808682 9.91353 5.09968 5.19487 11.695C2.56725 15.3621 0.886813 19.5219 0.251781 23.9279C0.0273438 25.4657 0 25.9201 0 28.0054C0 30.0908 0.0273438 30.5451 0.251781 32.0829C1.77362 42.5972 9.25662 51.4312 19.4055 54.7041C21.2231 55.2899 23.1389 55.6893 25.3177 55.9302C26.1662 56.0232 29.8338 56.0232 30.6823 55.9302C34.4431 55.5141 37.6289 54.5838 40.7711 52.9801C41.2528 52.7338 41.3459 52.6682 41.2801 52.6133C41.2363 52.5805 39.1836 49.8275 36.7202 46.4997L32.2424 40.4517L26.6315 32.1488C23.5441 27.5839 21.0042 23.8512 20.9823 23.8512C20.9604 23.8457 20.9385 27.5349 20.9276 32.0392C20.911 39.9262 20.9057 40.2436 20.8071 40.4298C20.6649 40.698 20.5553 40.8076 20.3254 40.9279C20.1502 41.0154 19.9968 41.0318 19.1704 41.0318H18.2232L17.9716 40.8732C17.8156 40.7754 17.6889 40.6373 17.6048 40.4735L17.4897 40.2272L17.5007 29.2534L17.5171 18.2739L17.6868 18.0604C17.7743 17.9456 17.9605 17.7979 18.0919 17.7266C18.3164 17.6172 18.4039 17.6063 19.3508 17.6063C20.4676 17.6063 20.6537 17.65 20.9438 17.9674C21.026 18.0549 24.064 22.6307 27.6988 28.1424C31.3338 33.6538 36.3044 41.1797 38.7457 44.8741L43.1797 51.5897L43.4042 51.4421C45.3913 50.1504 47.4932 48.3113 49.1573 46.3955C52.6991 42.329 54.9817 37.3703 55.7482 32.0832C55.9727 30.5451 56 30.0908 56 28.0057C56 25.9201 55.9727 25.466 55.7482 23.9279C54.2264 13.4137 46.7434 4.57971 36.5945 1.30678C34.8042 0.726651 32.8993 0.326995 30.7643 0.086151C30.2389 0.0314635 26.6206 -0.0286927 26.1662 0.0150573V0.0150573ZM37.6289 16.9494C37.8917 17.0806 38.1052 17.3326 38.1817 17.5953C38.2255 17.7375 38.2364 20.7808 38.2255 27.6388L38.2093 37.4797L36.4739 34.8197L34.7331 32.1597V25.0062C34.7331 20.3811 34.755 17.7813 34.7878 17.6555C34.8753 17.349 35.0672 17.1082 35.3299 16.9658C35.5543 16.8509 35.6363 16.84 36.4958 16.84C37.3061 16.84 37.4483 16.8509 37.6289 16.9494Z" fill="black"/>
</svg>
