<svg width="55" height="63" viewBox="0 0 55 63" fill="none" xmlns="http://www.w3.org/2000/svg">
<path d="M27.5 0C26.675 0 25.8194 0.213889 25.1167 0.611111L2.38333 13.75C0.916667 14.6056 0 16.1944 0 17.9056V44.1222C0 45.8333 0.916667 47.4222 2.38333 48.2778L8.34167 51.7C11.2444 53.1056 12.2222 53.1361 13.5667 53.1361C17.8444 53.1361 20.3194 50.5389 20.3194 46.0167V20.1361C20.3194 19.7694 20.0139 19.4639 19.6472 19.4639H16.8056C16.4083 19.4639 16.1028 19.7694 16.1028 20.1361V46.0167C16.1028 48.0333 14.025 50.0194 10.6944 48.3389L4.43056 44.7639C4.32768 44.6912 4.24355 44.5952 4.18511 44.4836C4.12667 44.372 4.0956 44.2482 4.09444 44.1222V17.9056C4.09444 17.6306 4.21667 17.3861 4.43056 17.2639L27.1639 4.15556C27.3472 4.03333 27.6528 4.03333 27.8361 4.15556L50.5694 17.2639C50.7833 17.3861 50.9056 17.6306 50.9056 17.9056V44.1222C50.9056 44.3667 50.7833 44.6111 50.5694 44.7639L27.8361 57.8722C27.6528 57.9945 27.3472 57.9945 27.1333 57.8722L21.3889 54.3889C21.1444 54.2972 20.9 54.2667 20.7472 54.3583C19.1278 55.275 18.8222 55.4583 17.325 55.9167C16.9583 56.0389 16.3778 56.2528 17.5389 56.8944L25.1167 61.3861C25.85 61.8139 26.6444 62.0278 27.5 62.0278C28.3556 62.0278 29.15 61.8139 29.8833 61.3861L52.6167 48.2778C54.0833 47.4222 55 45.8333 55 44.1222V17.9056C55 16.1944 54.0833 14.6056 52.6167 13.75L29.8833 0.611111C29.1806 0.213889 28.3556 0 27.5 0V0ZM33.6111 18.7917C27.1333 18.7917 23.2528 21.5111 23.2528 26.0944C23.2528 31.0139 27.1028 32.45 33.3361 33.0611C40.7611 33.7944 41.3417 34.8944 41.3417 36.3611C41.3417 38.8972 39.2944 39.9667 34.5278 39.9667C28.4778 39.9667 27.1944 38.4694 26.7361 35.475C26.7039 35.3202 26.6196 35.1812 26.4973 35.0811C26.3749 34.981 26.222 34.9259 26.0639 34.925H23.1306C22.7639 34.925 22.4889 35.2 22.4889 35.5972C22.4889 39.3861 24.5667 43.9694 34.5278 43.9694C41.7083 43.9694 45.8333 41.1278 45.8333 36.1778C45.8333 31.2583 42.5333 29.975 35.5361 29.0278C28.4778 28.1111 27.775 27.6222 27.775 25.9722C27.775 24.5972 28.3861 22.7639 33.6111 22.7639C38.1944 22.7639 39.9972 23.7722 40.7 26.9194C40.7611 27.225 41.0361 27.4389 41.3417 27.4389H44.3056C44.4583 27.4389 44.6417 27.3778 44.7639 27.225C44.8861 27.1028 44.9778 26.9194 44.9167 26.7361C44.4889 21.2972 40.8833 18.7917 33.6111 18.7917Z" fill="black"/>
</svg>
