<?xml version="1.0" encoding="UTF-8" standalone="no"?><!DOCTYPE svg PUBLIC "-//W3C//DTD SVG 1.1//EN" "http://www.w3.org/Graphics/SVG/1.1/DTD/svg11.dtd"><svg width="100%" height="100%" viewBox="0 0 452 452" version="1.1" xmlns="http://www.w3.org/2000/svg" xmlns:xlink="http://www.w3.org/1999/xlink" xml:space="preserve" xmlns:serif="http://www.serif.com/" style="fill-rule:evenodd;clip-rule:evenodd;stroke-linecap:round;stroke-linejoin:round;stroke-miterlimit:1.5;"><g><path d="M63.641,375.293c-36.552,-39.198 -58.794,-91.828 -58.794,-149.612c0,-121.882 98.952,-220.834 220.834,-220.834c121.881,0 220.833,98.952 220.833,220.834c0,57.784 -22.242,110.414 -58.794,149.612c-27.342,-62.329 -89.647,-105.862 -162.039,-105.862c-72.393,-0 -134.697,43.533 -162.04,105.862Z" style="fill:none;stroke:#000;stroke-width:9.69px;"/><circle cx="225.681" cy="190.07" r="70.833" style="stroke:#000;stroke-width:9.69px;"/><path d="M63.641,375.293c27.343,-62.329 89.647,-105.862 162.04,-105.862c72.392,-0 134.697,43.533 162.039,105.862c-40.186,43.854 -97.942,71.221 -162.039,71.221c-64.098,0 -121.853,-27.367 -162.04,-71.221Z" style="stroke:#000;stroke-width:9.69px;"/></g></svg>