<svg width="56" height="56" viewBox="0 0 56 56" fill="none" xmlns="http://www.w3.org/2000/svg">
<path d="M40.2148 50.5312C33.1326 50.5312 30.4358 48.6797 30.4358 45.5822C30.415 45.0716 30.4955 44.5619 30.6728 44.0826C30.85 43.6032 31.1205 43.1638 31.4685 42.7895C31.8166 42.4153 32.2353 42.1137 32.7005 41.9022C33.1658 41.6907 33.6683 41.5734 34.1791 41.5572V41.1145C33.3912 40.9386 32.6899 40.4921 32.1971 39.8526C31.7044 39.2132 31.4515 38.4212 31.4823 37.6145C31.4823 35.441 33.3321 34.3542 35.3446 33.9115V33.7505C34.1614 33.2403 33.1617 32.3817 32.4789 31.2889C31.7961 30.1962 31.4625 28.9213 31.5226 27.6342C31.5226 23.3677 34.5396 20.5117 40.2148 20.5117C41.4552 20.4907 42.691 20.6673 43.8758 21.035V20.3507C43.8152 19.942 43.8497 19.5249 43.9767 19.1317C44.1037 18.7385 44.3197 18.38 44.6079 18.084C44.8961 17.7879 45.2488 17.5625 45.6384 17.425C46.0281 17.2876 46.4442 17.242 46.8543 17.2917H50.1128V21.2345H45.6468V21.798C46.6837 22.366 47.5395 23.2149 48.1158 24.2472C48.6922 25.2796 48.9658 26.4535 48.9053 27.6342C48.9053 31.8587 45.9268 34.6762 40.2131 34.6762C39.1288 34.6913 38.0469 34.5696 36.9931 34.314C36.5852 34.4452 36.2257 34.6951 35.9607 35.0318C35.6957 35.3685 35.5373 35.7767 35.5056 36.204C35.5056 37.2522 36.3911 37.7737 38.2408 37.7737H43.8758C49.0261 37.7737 51.2398 39.9875 51.2398 43.771C51.2398 48.1565 48.2613 50.5312 40.2148 50.5312V50.5312ZM42.8293 42.2415H35.6666C35.3208 42.4866 35.0408 42.8131 34.8512 43.1922C34.6617 43.5713 34.5685 43.9913 34.5798 44.415C34.5798 46.025 35.7873 46.991 39.0073 46.991H41.5798C44.9223 46.991 46.4098 46.1457 46.4098 44.3747C46.4098 43.0447 45.4456 42.2397 42.8293 42.2397V42.2415ZM43.9966 27.9562V27.272C43.9966 25.1387 42.6683 24.052 40.2148 24.052C37.7613 24.052 36.4313 25.137 36.4313 27.272V27.9545C36.4313 30.0475 37.7596 31.1745 40.2148 31.1745C42.6701 31.1745 43.9948 30.0475 43.9948 27.9545L43.9966 27.9562Z" fill="black"/>
<path d="M8.05518 41.9999V13.9124H20.6902C25.8824 13.9124 29.0202 17.4124 29.0202 22.6046C29.0202 27.8371 25.8807 31.2969 20.6902 31.2969H13.3682V41.9999H8.05518ZM13.3682 26.7084H20.2089C20.6444 26.7608 21.0862 26.7156 21.5021 26.5761C21.918 26.4366 22.2976 26.2063 22.6134 25.9018C22.9292 25.5974 23.1733 25.2265 23.328 24.816C23.4827 24.4055 23.5441 23.9658 23.5077 23.5286V21.6771C23.543 21.242 23.4805 20.8045 23.3248 20.3967C23.1692 19.9889 22.9242 19.621 22.6079 19.3202C22.2916 19.0193 21.912 18.793 21.4969 18.6579C21.0818 18.5228 20.6417 18.4823 20.2089 18.5394H13.3664L13.3682 26.7084Z" fill="black"/>
</svg>
