<svg width="57" height="51" viewBox="0 0 57 51" fill="none" xmlns="http://www.w3.org/2000/svg">
<path d="M28.5 29.5051C27.4202 29.5051 26.3846 29.0761 25.6211 28.3126C24.8575 27.549 24.4286 26.5135 24.4286 25.4337C24.4286 24.3538 24.8575 23.3183 25.6211 22.5547C26.3846 21.7912 27.4202 21.3622 28.5 21.3622C29.5798 21.3622 30.6154 21.7912 31.3789 22.5547C32.1425 23.3183 32.5714 24.3538 32.5714 25.4337C32.5714 26.5135 32.1425 27.549 31.3789 28.3126C30.6154 29.0761 29.5798 29.5051 28.5 29.5051ZM27.0669 37.6316C27.5419 38.2016 28.0196 38.7554 28.5 39.2847C28.9804 38.7554 29.4581 38.2044 29.9331 37.6316C28.9778 37.6519 28.0222 37.6519 27.0669 37.6316V37.6316ZM21.6519 37.2924C19.5674 37.0755 17.4968 36.742 15.4497 36.2935C15.2461 37.2435 15.0914 38.1664 14.9883 39.0512C14.4726 43.3479 15.1919 45.9591 16.2857 46.5888C17.3796 47.2212 19.9989 46.5372 23.465 43.9451C24.1789 43.4104 24.8981 42.8159 25.6201 42.1672C24.2074 40.6177 22.8825 38.9902 21.6519 37.2924V37.2924ZM41.5503 36.2935C39.5037 36.7449 37.4329 37.0784 35.3481 37.2924C34.1175 38.9902 32.7926 40.6177 31.3799 42.1672C32.1019 42.8187 32.8211 43.4104 33.535 43.9451C37.0011 46.5372 39.6204 47.2212 40.7143 46.5888C41.8081 45.9591 42.5247 43.3479 42.0144 39.0512C41.9024 38.1255 41.7484 37.2053 41.553 36.2935H41.5503ZM45.486 35.2431C47.0521 42.4061 46.2297 48.1088 42.75 50.1174C39.2703 52.1259 33.9204 49.9871 28.5 45.0498C23.0796 49.9871 17.7297 52.1232 14.25 50.1147C10.7703 48.1061 9.94786 42.4061 11.5113 35.2404C4.52471 33.0174 0 29.4508 0 25.4337C0 21.4165 4.52471 17.8526 11.5113 15.6242C9.94786 8.46122 10.7703 2.75851 14.25 0.749936C17.7297 -1.25864 23.0796 0.880222 28.5 5.81751C33.9204 0.880222 39.2703 -1.25592 42.75 0.752651C46.2297 2.76122 47.0521 8.46122 45.4887 15.6269C52.4753 17.8499 57 21.4165 57 25.4337C57 29.4508 52.4753 33.0147 45.4887 35.2431H45.486ZM25.6174 8.70008C24.9272 8.07527 24.209 7.48204 23.465 6.92222C19.9989 4.33008 17.3796 3.64608 16.2857 4.27851C15.1919 4.90822 14.4753 7.51936 14.9856 11.8161C15.0941 12.7036 15.2461 13.6238 15.447 14.5738C17.495 14.1252 19.5665 13.7917 21.6519 13.5749C22.9411 11.8025 24.2711 10.1712 25.6201 8.70008H25.6174ZM35.3481 13.5749C37.525 13.8029 39.6041 14.1422 41.5503 14.5738C41.7539 13.6238 41.9086 12.7009 42.0117 11.8161C42.5274 7.51936 41.8081 4.90822 40.7143 4.27851C39.6204 3.64608 37.0011 4.33008 33.535 6.92222C32.7901 7.48197 32.071 8.0752 31.3799 8.70008C32.7289 10.1712 34.0589 11.8025 35.3481 13.5749V13.5749ZM29.9331 13.2356C29.4581 12.6656 28.9804 12.1119 28.5 11.5826C28.0196 12.1119 27.5419 12.6629 27.0669 13.2356C28.0222 13.2154 28.9778 13.2154 29.9331 13.2356V13.2356ZM18.6526 32.7731C18.1574 31.9564 17.6795 31.1292 17.2194 30.2922C16.9616 30.9898 16.7227 31.6765 16.5056 32.3578C17.2031 32.5098 17.9197 32.6482 18.6499 32.7731H18.6526ZM23.8966 33.4082C26.9613 33.6359 30.0387 33.6359 33.1034 33.4082C34.833 30.8675 36.3717 28.202 37.7069 25.4337C36.3717 22.6653 34.833 19.9998 33.1034 17.4591C30.0387 17.2314 26.9613 17.2314 23.8966 17.4591C22.167 19.9998 20.6283 22.6653 19.2931 25.4337C20.6283 28.202 22.167 30.8675 23.8966 33.4082V33.4082ZM39.7806 20.5751C40.0384 19.8775 40.2773 19.1908 40.4944 18.5095C39.7829 18.3551 39.0679 18.2166 38.3501 18.0942C38.8444 18.911 39.3213 19.7381 39.7806 20.5751ZM12.5671 19.5626C11.6443 19.8612 10.7703 20.1869 9.95057 20.5398C5.97414 22.2444 4.07143 24.1715 4.07143 25.4337C4.07143 26.6958 5.97143 28.6229 9.95057 30.3275C10.7703 30.6804 11.6443 31.0061 12.5671 31.3047C13.1697 29.4047 13.9161 27.4341 14.8064 25.4337C13.951 23.52 13.2034 21.5599 12.5671 19.5626V19.5626ZM16.5029 18.5095C16.7227 19.1881 16.9616 19.8775 17.2194 20.5724C17.6796 19.7363 18.1574 18.91 18.6526 18.0942C17.9197 18.2191 17.2031 18.3575 16.5056 18.5095H16.5029ZM44.4329 31.3047C45.3557 31.0061 46.2297 30.6804 47.0494 30.3275C51.0259 28.6229 52.9286 26.6958 52.9286 25.4337C52.9286 24.1715 51.0286 22.2444 47.0494 20.5398C46.1924 20.1747 45.3194 19.8487 44.4329 19.5626C43.8303 21.4626 43.0839 23.4332 42.1936 25.4337C43.0839 27.4341 43.8303 29.4019 44.4329 31.3047V31.3047ZM40.4971 32.3578C40.2727 31.6652 40.0338 30.9775 39.7806 30.2949C39.3204 31.131 38.8426 31.9573 38.3474 32.7731C39.0803 32.6482 39.7969 32.5098 40.4944 32.3578H40.4971Z" fill="black"/>
</svg>
