<?xml version="1.0" encoding="UTF-8" standalone="no"?><!DOCTYPE svg PUBLIC "-//W3C//DTD SVG 1.1//EN" "http://www.w3.org/Graphics/SVG/1.1/DTD/svg11.dtd"><svg width="100%" height="100%" viewBox="0 0 412 361" version="1.1" xmlns="http://www.w3.org/2000/svg" xmlns:xlink="http://www.w3.org/1999/xlink" xml:space="preserve" xmlns:serif="http://www.serif.com/" style="fill-rule:evenodd;clip-rule:evenodd;stroke-linejoin:round;stroke-miterlimit:2;"><g><g><path d="M30.238,360.317l161.269,-0l0,-60.476l-161.269,-0l-30.238,27.214l0,6.047l30.238,27.215Z"/></g><g><path d="M350.761,60.476l-161.27,0l0,-60.476l161.27,-0l30.238,27.214l-0,6.048l-30.238,27.214Z"/></g><g><path d="M32.389,0l161.269,0l0,60.476l-161.269,0l-30.238,-27.214l-0,-6.048l30.238,-27.214Z"/></g><g><path d="M350.761,360.317l-161.27,-0l0,-60.476l161.27,-0l30.238,27.214l-0,6.047l-30.238,27.215Z"/></g><g><path d="M350.761,299.841l-0,-161.27l60.476,0l-0,161.27l-27.214,30.238l-6.048,-0l-27.214,-30.238Z"/></g><g><g><path d="M286.039,166.355l-0,18.649l-30.238,0l-0,-18.649l13.607,-3.496l3.024,-0l13.607,3.496Z"/></g><g><path d="M255.801,191.833l-0,-18.371l30.238,0l-0,18.371l-13.607,3.444l-3.024,0l-13.607,-3.444Z"/></g><g><path d="M283.632,194.187l-18.649,0l0,-30.238l18.649,0l3.497,13.607l-0,3.024l-3.497,13.607Z"/></g><g><path d="M258.155,163.949l18.371,0l-0,30.238l-18.371,0l-3.445,-13.607l0,-3.024l3.445,-13.607Z"/></g></g><g><g><path d="M220.737,166.355l0,18.649l-30.238,0l0,-18.649l13.608,-3.496l3.023,-0l13.607,3.496Z"/></g><g><path d="M190.499,191.833l0,-18.371l30.238,0l0,18.371l-13.607,3.444l-3.023,0l-13.608,-3.444Z"/></g><g><path d="M218.331,194.187l-18.649,0l0,-30.238l18.649,0l3.497,13.607l-0,3.024l-3.497,13.607Z"/></g><g><path d="M192.854,163.949l18.37,0l0,30.238l-18.37,0l-3.445,-13.607l0,-3.024l3.445,-13.607Z"/></g></g><g><g><path d="M154.071,166.355l-0,18.649l-30.238,0l-0,-18.649l13.607,-3.496l3.024,-0l13.607,3.496Z"/></g><g><path d="M123.833,191.833l-0,-18.371l30.238,0l-0,18.371l-13.607,3.444l-3.024,0l-13.607,-3.444Z"/></g><g><path d="M151.664,194.187l-18.649,0l0,-30.238l18.649,0l3.497,13.607l0,3.024l-3.497,13.607Z"/></g><g><path d="M126.187,163.949l18.371,0l-0,30.238l-18.371,0l-3.445,-13.607l0,-3.024l3.445,-13.607Z"/></g></g><g><path d="M411.237,60.476l-0,161.269l-60.476,0l-0,-161.269l27.214,-30.238l6.048,0l27.214,30.238Z"/></g></g></svg>