<svg width="68" height="129" viewBox="0 0 68 129" fill="none" xmlns="http://www.w3.org/2000/svg">
<path d="M67.9839 82.9807C67.9839 63.7474 54.4491 58.2326 39.8074 55.1285L32.0468 53.5543C20.5709 51.2947 19.6853 47.9608 19.6853 43.4982C19.6853 37.7072 24.896 34.2464 33.6246 34.2464C43.9614 34.2464 46.61 39.4467 47.7089 43.3531L47.8135 43.6776C49.1137 47.084 52.1346 49.1158 55.9042 49.1158C56.8803 49.1158 57.7578 48.9667 58.4139 48.8336C62.4593 48.0274 65.2769 44.8023 65.2769 40.9827C65.2769 40.0353 65.1059 39.096 64.7617 38.1829C62.6887 31.5071 56.8642 20.9995 40.7251 18.6009V7.15203C40.7251 -2.38401 25.8117 -2.38401 25.8117 7.15203V18.6694C8.47509 21.3865 2.0911 33.1982 2.0911 43.4942C2.0911 62.2276 15.1167 67.4502 27.8404 70.0786L36.235 71.8644C48.1899 74.2993 50.2971 77.4216 50.2971 83.0775C50.2971 89.9891 44.4625 94.1091 34.6813 94.1091C21.9837 94.1091 19.3955 88.3827 17.6647 81.9548C16.6523 78.3971 13.4422 76.1053 9.48341 76.1053C8.62 76.1053 7.92766 76.2202 7.09243 76.3634L6.84086 76.4117C2.74721 77.3853 0 80.6144 0 84.4421C0 85.1697 0.128807 85.7885 0.233463 86.2884L0.36227 86.8608C2.20381 93.0953 6.26928 106.711 26.5463 109.749V121.732C26.5463 126.503 30.2938 129 34.001 129C37.7082 129 41.4597 126.503 41.4597 121.732V109.958C57.5606 107.858 68 97.5559 68 82.9827" fill="url(#paint0_linear_227_31)"/>
<defs>
<linearGradient id="paint0_linear_227_31" x1="-15.5" y1="83.5" x2="83.5" y2="85" gradientUnits="userSpaceOnUse">
<stop stop-color="#239FC7"/>
<stop offset="0.519942" stop-color="#8166BA"/>
<stop offset="1" stop-color="#BB4848"/>
</linearGradient>
</defs>
</svg>
