<svg width="56" height="34" viewBox="0 0 56 34" fill="none" xmlns="http://www.w3.org/2000/svg">
<path d="M28 0C20.5333 0 15.8667 3.73333 14 11.2C16.8 7.46667 20.0667 6.06667 23.8 7C25.9303 7.532 27.4517 9.07667 29.1387 10.7893C31.885 13.5753 35.0607 16.8 42 16.8C49.4667 16.8 54.1333 13.0667 56 5.6C53.2 9.33333 49.9333 10.7333 46.2 9.8C44.0697 9.268 42.5483 7.72333 40.8613 6.01067C38.1173 3.22467 34.9417 0 28 0ZM14 16.8C6.53333 16.8 1.86667 20.5333 0 28C2.8 24.2667 6.06667 22.8667 9.8 23.8C11.9303 24.332 13.4517 25.8767 15.1387 27.5893C17.885 30.3753 21.0607 33.6 28 33.6C35.4667 33.6 40.1333 29.8667 42 22.4C39.2 26.1333 35.9333 27.5333 32.2 26.6C30.0697 26.068 28.5483 24.5233 26.8613 22.8107C24.1173 20.0247 20.9417 16.8 14 16.8V16.8Z" fill="black"/>
</svg>
