<svg width="56" height="56" viewBox="0 0 56 56" fill="none" xmlns="http://www.w3.org/2000/svg">
<path d="M0 28V56H56V0H0V28ZM45.1255 25.767C46.468 26.0831 47.6881 26.7865 48.6343 27.79C49.1453 28.336 49.91 29.3388 49.9747 29.5855C49.9922 29.659 47.5598 31.29 46.0828 32.2017C46.0285 32.2385 45.8098 32.011 45.5718 31.654C44.8525 30.6057 44.0947 30.1507 42.938 30.0685C41.2422 29.9582 40.1485 30.8438 40.1573 32.3295C40.1484 32.6931 40.2295 33.0532 40.3935 33.3777C40.768 34.153 41.4698 34.6168 43.638 35.5565C47.649 37.2785 49.3622 38.4178 50.428 40.0312C51.6215 41.8355 51.8857 44.716 51.0842 46.8668C50.1917 49.1908 47.985 50.7763 44.8858 51.296C43.9285 51.4693 41.65 51.4412 40.6193 51.2505C38.3688 50.8497 36.2355 49.7367 34.923 48.279C34.4032 47.7137 33.4005 46.228 33.4652 46.1282C33.4932 46.0915 33.7208 45.9462 33.9763 45.7992L36.0553 44.5952L37.6687 43.6573L38.0065 44.1577C38.4808 44.877 39.5097 45.8622 40.131 46.1895C41.9177 47.138 44.3695 47.0015 45.5823 45.9165C46.074 45.507 46.3488 44.877 46.312 44.24C46.312 43.5925 46.2298 43.302 45.892 42.8172C45.4545 42.1977 44.5707 41.6693 42.0455 40.5755C39.1562 39.326 37.9068 38.5613 36.778 37.331C36.0674 36.5212 35.5419 35.5663 35.238 34.5327C35.028 33.74 34.9738 31.752 35.1383 30.9592C35.7315 28.161 37.8455 26.2202 40.88 25.6462C41.8653 25.4555 44.1613 25.5272 45.1273 25.7652L45.1255 25.767ZM31.983 28.1102L32.0005 30.3975H24.7083V51.1157H19.5492V30.3975H12.2675V28.1558C12.2675 26.9063 12.2955 25.8685 12.3305 25.8405C12.3585 25.8037 16.7878 25.7862 22.1655 25.795L31.955 25.823L31.983 28.1102Z" fill="black"/>
</svg>
