<svg width="126" height="51" viewBox="0 0 126 51" fill="none" xmlns="http://www.w3.org/2000/svg">
<path d="M19.7812 51C25.0781 51 29.6133 49.1133 33.3867 45.3398C37.1602 41.5898 39.0469 37.0547 39.0469 31.7344V3.75C39.0469 2.88281 38.7305 2.13281 38.0977 1.5C37.4648 0.867188 36.7031 0.550781 35.8125 0.550781C34.9453 0.550781 34.1953 0.867188 33.5625 1.5C32.9297 2.13281 32.6133 2.88281 32.6133 3.75V31.7344C32.6133 35.2734 31.3594 38.2969 28.8516 40.8047C26.3438 43.3125 23.3203 44.5664 19.7812 44.5664C16.2422 44.5664 13.2188 43.3125 10.7109 40.8047C8.20312 38.2969 6.94922 35.2734 6.94922 31.7344V3.75C6.94922 2.88281 6.63281 2.13281 6 1.5C5.36719 0.867188 4.60547 0.550781 3.71484 0.550781C2.82422 0.550781 2.07422 0.867188 1.46484 1.5C0.832031 2.13281 0.515625 2.88281 0.515625 3.75V31.7344C0.515625 37.0547 2.40234 41.5898 6.17578 45.3398C9.92578 49.1133 14.4609 51 19.7812 51ZM90.7617 49.5586C91.3945 48.5742 91.4766 47.5547 91.0078 46.5L71.7422 2.48438C71.1797 1.19531 70.1953 0.550781 68.7891 0.550781C67.4062 0.550781 66.4336 1.19531 65.8711 2.48438L46.6055 46.5C46.2539 47.3203 46.2422 48.1406 46.5703 48.9609C46.875 49.7812 47.4375 50.3672 48.2578 50.7188C48.6797 50.9062 49.1133 51 49.5586 51C50.9414 51 51.9141 50.3555 52.4766 49.0664L68.7891 11.7656L83.168 44.5664H64.2188C63.3281 44.5664 62.5664 44.8828 61.9336 45.5156C61.3242 46.1484 61.0195 46.9102 61.0195 47.8008C61.0195 48.668 61.3242 49.418 61.9336 50.0508C62.5664 50.6836 63.3281 51 64.2188 51H88.0547C89.2266 51 90.1289 50.5195 90.7617 49.5586ZM101.66 6.98438V47.8008C101.66 48.6914 101.965 49.4414 102.574 50.0508C103.207 50.6836 103.969 51 104.859 51C105.75 51 106.512 50.6836 107.145 50.0508C107.754 49.4414 108.059 48.6914 108.059 47.8008V6.98438H121.84C122.707 6.98438 123.457 6.66797 124.09 6.03516C124.723 5.40234 125.039 4.64062 125.039 3.75C125.039 2.88281 124.723 2.13281 124.09 1.5C123.457 0.867188 122.707 0.550781 121.84 0.550781H87.8789C86.9883 0.550781 86.2383 0.867188 85.6289 1.5C84.9961 2.13281 84.6797 2.88281 84.6797 3.75C84.6797 4.64062 84.9961 5.40234 85.6289 6.03516C86.2383 6.66797 86.9883 6.98438 87.8789 6.98438H101.66Z" fill="url(#paint0_linear_306_47)"/>
<defs>
<linearGradient id="paint0_linear_306_47" x1="-3" y1="24" x2="129" y2="24" gradientUnits="userSpaceOnUse">
<stop stop-color="#239FC7"/>
<stop offset="0.483482" stop-color="#8166BA"/>
<stop offset="0.988711" stop-color="#F46737"/>
</linearGradient>
</defs>
</svg>
