
<svg width="100%" height="100%" viewBox="0 0 1775 1160" version="1.1" style="fill-rule:evenodd;clip-rule:evenodd;stroke-linecap:round;stroke-linejoin:round;stroke-miterlimit:1.5;">
    <g id="logo">
        <g id="aytee-letter">
            <path id="letter-t" d="M1274,94.718l0,1014.15c0,12.293 4.276,22.715 12.828,31.266c8.551,8.552 18.973,12.828 31.266,12.828c12.292,-0 22.714,-4.276 31.266,-12.828c8.551,-8.551 12.827,-18.973 12.827,-31.266l0,-1014.15l363.971,-0c11.758,-0 22.18,-4.276 31.266,-12.828c8.551,-8.551 12.827,-18.973 12.827,-31.266c-0,-12.293 -4.276,-22.715 -12.827,-31.266c-9.086,-8.551 -19.508,-12.827 -31.266,-12.827l-816.128,-0c-12.293,-0 -22.715,4.276 -31.266,12.827c-8.552,8.551 -12.827,18.973 -12.827,31.266c-0,12.293 4.275,22.715 12.827,31.266c8.551,8.552 18.973,12.828 31.266,12.828l363.97,-0Z" style="fill-rule:nonzero;"/>
            <path id="letter-a" d="M1012.65,1132.91c9.086,-13.361 10.422,-27.258 4.009,-41.688l-463.381,-1058.24c-7.483,-17.637 -20.844,-26.456 -40.085,-26.456c-19.241,-0 -32.87,8.819 -40.887,26.456l-462.579,1058.24c-4.81,11.224 -5.077,22.447 -0.802,33.671c4.276,11.224 12.026,19.241 23.25,24.051c5.879,2.672 11.758,4.009 17.637,4.009c19.241,-0 32.87,-8.819 40.887,-26.456l422.494,-966.045l395.237,904.314l-505.871,-0c-12.293,-0 -22.715,4.276 -31.267,12.827c-8.551,8.552 -12.827,18.974 -12.827,31.266c0,12.293 4.276,22.715 12.827,31.266c8.552,8.552 18.974,12.828 31.267,12.828l573.213,-0c16.034,-0 28.327,-6.681 36.878,-20.043Z" style="fill-rule:nonzero;"/>
        </g>
        <g id="aytee-mask">
            <g id="mask-t">
                <path d="M1318.09,1108.91l-0,-1029.17" style="fill:none;stroke:#000;stroke-width:90.26px;"/><path d="M888.078,50.578l841.666,-0" style="fill:none;stroke:#000;stroke-width:90.26px;"/>
            </g>
            <path id="mask-t1" d="M50.578,1108.91l462.692,-1058.33l470.641,1054.17l-575,4.167" style="fill:none;stroke:#000;stroke-width:101.16px;"/>
    </g></g>
</svg>