<svg width="479" height="69" viewBox="0 0 479 69" fill="none" xmlns="http://www.w3.org/2000/svg">
<path d="M50.9844 3.54688C50.9844 2.82813 50.7344 2.21875 50.2344 1.71875C49.7031 1.21875 49.0938 0.96875 48.4062 0.96875C47.6875 0.96875 47.0781 1.21875 46.5781 1.71875C46.0781 2.21875 45.8281 2.82813 45.8281 3.54688V42.875C45.8281 48.375 43.875 53.0781 39.9688 56.9844C36.0625 60.8906 31.3438 62.8438 25.8125 62.8438C20.3125 62.8438 15.6094 60.8906 11.7031 56.9844C7.79688 53.0781 5.84375 48.375 5.84375 42.875V3.54688C5.84375 2.82813 5.59375 2.21875 5.09375 1.71875C4.59375 1.21875 3.98438 0.96875 3.26562 0.96875C2.54688 0.96875 1.9375 1.21875 1.4375 1.71875C0.9375 2.21875 0.6875 2.82813 0.6875 3.54688V42.875C0.6875 49.7812 3.14062 55.7031 8.04688 60.6406C12.9844 65.5469 18.9062 68 25.8125 68C32.75 68 38.6719 65.5469 43.5781 60.6406C48.5156 55.7031 50.9844 49.7812 50.9844 42.875V3.54688ZM65.5625 6.125H86.9375C91.3438 6.125 95.1094 7.6875 98.2344 10.8125C101.391 13.9375 102.969 17.7188 102.969 22.1562C102.969 26.5625 101.391 30.3438 98.2344 33.5C95.1094 36.625 91.3438 38.1875 86.9375 38.1875H65.5625V6.125ZM65.5625 43.3438H86.9375C92.7812 43.3438 97.7656 41.2656 101.891 37.1094C106.047 32.9844 108.125 28 108.125 22.1562C108.125 16.3125 106.047 11.3125 101.891 7.15625C97.7656 3.03125 92.7812 0.96875 86.9375 0.96875H62.9844C62.2656 0.96875 61.6562 1.21875 61.1562 1.71875C60.6562 2.21875 60.4062 2.82813 60.4062 3.54688V65.4219C60.4062 66.1406 60.6562 66.75 61.1562 67.25C61.6562 67.75 62.2656 68 62.9844 68C63.7031 68 64.3125 67.75 64.8125 67.25C65.3125 66.75 65.5625 66.1406 65.5625 65.4219V43.3438ZM151.016 68C160.266 68 168.172 64.7344 174.734 58.2031C175.234 57.6719 175.484 57.0625 175.484 56.375V34.4844C175.484 33.7656 175.234 33.1562 174.734 32.6562C174.234 32.1562 173.625 31.9062 172.906 31.9062H149.75C149.031 31.9062 148.422 32.1562 147.922 32.6562C147.422 33.1562 147.172 33.7656 147.172 34.4844C147.172 35.2031 147.422 35.8125 147.922 36.3125C148.422 36.8125 149.031 37.0625 149.75 37.0625H170.328V55.25C164.891 60.3125 158.453 62.8438 151.016 62.8438C143.172 62.8438 136.484 60.0781 130.953 54.5469C125.422 49.0156 122.656 42.3281 122.656 34.4844C122.656 26.6406 125.422 19.9531 130.953 14.4219C136.484 8.89062 143.172 6.125 151.016 6.125C158.859 6.125 165.547 8.89062 171.078 14.4219C171.578 14.9219 172.188 15.1719 172.906 15.1719C173.625 15.1719 174.234 14.9219 174.734 14.4219C175.234 13.9219 175.484 13.3125 175.484 12.5938C175.484 11.875 175.234 11.2656 174.734 10.7656C168.172 4.23438 160.266 0.96875 151.016 0.96875C141.766 0.96875 133.859 4.23438 127.297 10.7656C120.766 17.3281 117.5 25.2344 117.5 34.4844C117.5 43.7344 120.766 51.6406 127.297 58.2031C133.859 64.7344 141.766 68 151.016 68ZM190.062 6.125H211.297C215.703 6.125 219.484 7.6875 222.641 10.8125C225.766 13.9375 227.328 17.7188 227.328 22.1562C227.328 26.5625 225.766 30.3438 222.641 33.5C219.484 36.625 215.703 38.1875 211.297 38.1875H190.062V6.125ZM187.484 68C188.203 68 188.812 67.75 189.312 67.25C189.812 66.75 190.062 66.1406 190.062 65.4219V43.3438H206.75L228.734 67.1562C229.234 67.7188 229.859 68 230.609 68C231.297 68 231.891 67.7656 232.391 67.2969C232.891 66.8281 233.156 66.2344 233.188 65.5156C233.219 64.7969 233 64.1875 232.531 63.6875L213.641 43.2031C218.953 42.6094 223.422 40.3125 227.047 36.3125C230.672 32.2812 232.484 27.5625 232.484 22.1562C232.484 16.3125 230.406 11.3125 226.25 7.15625C222.125 3.03125 217.141 0.96875 211.297 0.96875H187.484C186.766 0.96875 186.156 1.21875 185.656 1.71875C185.156 2.21875 184.906 2.82813 184.906 3.54688V65.4219C184.906 66.1406 185.156 66.75 185.656 67.25C186.156 67.75 186.766 68 187.484 68ZM258.406 42.2188L272.516 9.96875L286.625 42.2188H258.406ZM274.859 2.51562C274.422 1.48438 273.641 0.96875 272.516 0.96875C271.391 0.96875 270.594 1.48438 270.125 2.51562L243.078 64.3906C242.797 65.0469 242.781 65.7031 243.031 66.3594C243.281 67.0156 243.734 67.4844 244.391 67.7656C244.734 67.9219 245.078 68 245.422 68C246.547 68 247.344 67.4844 247.812 66.4531L256.203 47.2344C256.484 47.3281 256.766 47.375 257.047 47.375H287.984C288.266 47.375 288.547 47.3281 288.828 47.2344L297.219 66.4531C297.5 67.1094 297.969 67.5625 298.625 67.8125C299.281 68.0625 299.938 68.0469 300.594 67.7656C301.25 67.4844 301.719 67.0156 302 66.3594C302.25 65.7031 302.234 65.0469 301.953 64.3906L274.859 2.51562ZM316.906 6.125H329.797C337.609 6.125 344.297 8.89062 349.859 14.4219C355.391 19.9844 358.156 26.6719 358.156 34.4844C358.156 42.2969 355.391 48.9844 349.859 54.5469C344.297 60.0781 337.609 62.8438 329.797 62.8438H316.906V6.125ZM329.797 68C339.047 68 346.953 64.7344 353.516 58.2031C360.047 51.6406 363.312 43.7344 363.312 34.4844C363.312 25.2344 360.047 17.3281 353.516 10.7656C346.953 4.23438 339.047 0.96875 329.797 0.96875H314.328C313.609 0.96875 313 1.21875 312.5 1.71875C312 2.21875 311.75 2.82813 311.75 3.54688V65.4219C311.75 66.1406 312 66.75 312.5 67.25C313 67.75 313.609 68 314.328 68H329.797ZM417.828 68C418.516 68 419.125 67.75 419.656 67.25C420.156 66.75 420.406 66.1406 420.406 65.4219C420.406 64.7031 420.156 64.0938 419.656 63.5938C419.125 63.0938 418.516 62.8438 417.828 62.8438H377.844V37.0625H407.516C408.203 37.0625 408.797 36.8125 409.297 36.3125C409.828 35.8125 410.094 35.2031 410.094 34.4844C410.094 33.7656 409.828 33.1562 409.297 32.6562C408.797 32.1562 408.203 31.9062 407.516 31.9062H377.844V6.125H417.828C418.516 6.125 419.125 5.875 419.656 5.375C420.156 4.875 420.406 4.26562 420.406 3.54688C420.406 2.82813 420.156 2.21875 419.656 1.71875C419.125 1.21875 418.516 0.96875 417.828 0.96875H375.266C374.547 0.96875 373.938 1.21875 373.438 1.71875C372.938 2.21875 372.688 2.82813 372.688 3.54688V65.4219C372.688 66.1406 372.938 66.75 373.438 67.25C373.938 67.75 374.547 68 375.266 68H417.828ZM447.828 62.8438C444.266 62.8438 441.234 61.5781 438.734 59.0469C436.203 56.5469 434.938 53.5156 434.938 49.9531C434.938 49.2344 434.688 48.625 434.188 48.125C433.688 47.625 433.078 47.375 432.359 47.375C431.641 47.375 431.031 47.625 430.531 48.125C430.031 48.625 429.781 49.2344 429.781 49.9531C429.781 54.9219 431.547 59.1719 435.078 62.7031C438.609 66.2344 442.859 68 447.828 68H460.109C465.109 68 469.359 66.2344 472.859 62.7031C476.391 59.1719 478.156 54.9219 478.156 49.9531C478.156 44.9844 476.391 40.7344 472.859 37.2031C469.359 33.6719 465.109 31.9062 460.109 31.9062H447.828C444.266 31.9062 441.234 30.6406 438.734 28.1094C436.203 25.6094 434.938 22.5781 434.938 19.0156C434.938 15.4531 436.203 12.4062 438.734 9.875C441.234 7.375 444.266 6.125 447.828 6.125H460.109C463.672 6.125 466.719 7.375 469.25 9.875C471.75 12.4062 473 15.4531 473 19.0156C473 19.7344 473.25 20.3438 473.75 20.8438C474.281 21.3438 474.891 21.5938 475.578 21.5938C476.297 21.5938 476.906 21.3438 477.406 20.8438C477.906 20.3438 478.156 19.7344 478.156 19.0156C478.156 14.0469 476.391 9.79687 472.859 6.26562C469.359 2.73438 465.109 0.96875 460.109 0.96875H447.828C442.859 0.96875 438.609 2.73438 435.078 6.26562C431.547 9.79687 429.781 14.0469 429.781 19.0156C429.781 23.9844 431.547 28.2344 435.078 31.7656C438.609 35.2969 442.859 37.0625 447.828 37.0625H460.109C463.672 37.0625 466.719 38.3281 469.25 40.8594C471.75 43.3594 473 46.3906 473 49.9531C473 53.5156 471.75 56.5469 469.25 59.0469C466.719 61.5781 463.672 62.8438 460.109 62.8438H447.828Z" fill="black"/>
</svg>
